{"glyphs":{"0":{"ha":829,"x_min":0,"x_max":0,"o":"m 429 1042 b 63 506 196 1042 63 836 b 411 -8 63 165 203 -8 b 765 539 669 -8 765 260 b 429 1042 765 781 693 1042 z m 278 506 b 444 944 278 782 357 944 b 579 551 510 944 579 851 b 432 121 579 283 524 121 b 278 506 356 121 278 232 z "},"1":{"ha":463,"x_min":0,"x_max":0,"o":"m 356 1039 b 22 904 208 939 99 904 l 22 831 l 156 831 l 156 0 l 356 0 z "},"2":{"ha":708,"x_min":0,"x_max":0,"o":"m 204 169 l 189 169 b 624 767 254 353 624 469 b 307 1040 624 906 542 1040 b 58 861 121 1040 58 956 b 188 711 58 767 122 711 b 283 758 225 711 258 729 b 207 885 228 775 207 843 b 290 957 207 921 224 957 b 421 786 392 957 421 872 b 53 85 421 483 53 349 b 72 -4 53 28 69 4 b 174 35 99 6 142 35 b 519 -15 310 35 392 -15 b 665 115 633 -15 665 25 b 639 240 665 190 643 225 b 467 144 600 175 568 144 b 204 169 375 144 279 169 z "},"3":{"ha":743,"x_min":0,"x_max":0,"o":"m 303 357 b 185 428 285 407 238 428 b 44 256 92 428 44 361 b 367 -8 44 18 283 -8 b 703 333 585 -8 703 169 b 481 579 703 456 636 535 b 632 819 585 638 632 736 b 350 1040 632 942 532 1040 b 88 853 193 1040 88 967 b 213 711 88 767 147 711 b 310 758 246 711 282 726 b 239 876 261 772 239 836 b 331 957 239 929 275 957 b 461 817 417 957 461 889 b 256 581 461 722 388 618 b 486 314 417 563 486 442 b 333 103 486 215 444 103 b 203 243 279 103 203 129 b 303 357 203 299 221 357 z "},"4":{"ha":713,"x_min":0,"x_max":0,"o":"m 374 375 l 374 0 l 575 0 l 575 375 l 663 375 l 663 485 l 575 485 l 575 1042 l 374 1014 l 374 485 l 158 485 b 281 882 197 614 281 756 b 115 1042 281 1018 211 1042 b 140 888 131 1004 140 975 b 24 375 140 715 39 504 z "},"5":{"ha":719,"x_min":0,"x_max":0,"o":"m 590 1040 b 375 996 513 1007 446 996 b 160 1019 299 996 260 1008 l 76 469 b 279 542 121 501 196 542 b 479 317 388 542 479 472 b 338 94 479 219 443 94 b 203 225 272 94 203 142 b 308 319 203 285 238 311 b 193 390 289 368 249 390 b 50 218 124 390 50 344 b 340 -8 50 26 217 -8 b 675 325 585 -8 675 165 b 364 660 675 504 564 660 b 196 617 307 660 253 647 l 238 868 b 476 833 294 861 406 833 b 608 954 574 833 608 886 b 590 1040 608 990 599 1013 z "},"6":{"ha":767,"x_min":0,"x_max":0,"o":"m 321 457 b 438 536 350 519 396 536 b 565 354 515 536 565 476 b 408 118 565 240 521 118 b 247 440 338 118 247 167 b 460 958 247 694 325 958 b 556 875 511 958 556 921 b 539 826 556 857 549 838 b 586 813 557 817 574 813 b 649 899 626 813 649 854 b 451 1042 649 975 582 1042 b 61 433 178 1042 61 746 b 389 -8 61 99 224 -8 b 724 353 607 -8 724 160 b 464 643 724 481 660 643 b 293 515 364 643 293 579 b 321 457 293 494 301 475 z "},"7":{"ha":657,"x_min":0,"x_max":0,"o":"m 656 1018 b 542 1006 617 1010 578 1006 b 153 1040 425 1006 264 1040 b 21 946 74 1040 21 1025 b 128 789 21 861 67 790 b 274 896 128 872 189 896 b 475 861 321 896 475 882 b 149 222 475 742 149 465 b 336 -12 149 100 207 -12 b 419 10 361 -12 390 -6 b 351 254 388 78 351 113 b 656 1018 351 574 656 894 z "},"8":{"ha":765,"x_min":0,"x_max":0,"o":"m 385 108 b 243 301 307 108 243 199 b 368 525 243 381 282 486 b 528 304 433 496 528 421 b 385 108 528 210 467 108 z m 390 -8 b 722 311 601 -8 722 160 b 510 579 722 429 647 538 b 663 808 613 633 663 726 b 372 1042 663 931 547 1042 b 94 801 189 1042 94 921 b 250 579 94 715 144 635 b 51 308 110 536 51 414 b 390 -8 51 147 188 -8 z m 379 626 b 272 825 308 678 272 753 b 382 971 272 904 315 971 b 488 835 450 971 488 903 b 379 626 488 765 449 678 z "},"9":{"ha":765,"x_min":0,"x_max":0,"o":"m 444 618 b 328 539 415 556 369 539 b 200 721 250 539 200 599 b 357 947 200 818 244 947 b 518 593 428 947 518 867 b 306 104 518 339 440 104 b 210 188 254 104 210 142 b 226 236 210 206 217 225 b 179 250 208 246 192 250 b 117 164 139 250 117 208 b 314 -8 117 88 183 -8 b 704 600 588 -8 704 288 b 376 1042 704 935 542 1042 b 42 722 158 1042 42 894 b 301 432 42 594 106 432 b 472 560 401 432 472 496 b 444 618 472 579 464 600 z "},"A":{"ha":838,"x_min":0,"x_max":0,"o":"m 774 0 l 774 1022 b 663 1042 736 1036 690 1042 b 269 632 501 1042 363 853 b 188 636 238 635 208 636 b -60 483 40 636 -60 571 b 46 385 -60 419 -8 385 b 114 431 85 385 114 403 b 85 482 114 453 93 482 b 239 556 93 531 150 550 b 139 78 175 382 139 199 b 365 -158 139 -154 272 -158 b 315 54 346 -136 315 -101 b 382 553 315 193 339 383 b 572 504 442 547 497 535 l 572 0 z m 572 565 b 399 613 515 586 456 601 b 572 942 442 767 501 896 z "},"Æ":{"ha":1168,"x_min":0,"x_max":0,"o":"m 1157 0 l 1157 147 l 847 147 l 847 479 l 1056 479 l 1063 582 l 847 582 l 847 933 b 1029 889 904 913 960 889 b 1144 1042 1144 889 1138 982 b 988 1015 1088 1022 1036 1015 b 732 1043 890 1015 808 1043 b 342 628 574 1043 436 851 b 253 632 310 631 279 632 b 14 488 119 632 14 565 b 114 385 14 418 65 385 b 188 431 167 385 188 406 b 160 482 188 453 168 482 b 314 556 169 533 228 550 b 213 74 249 379 213 196 b 440 -157 213 -147 319 -150 b 389 60 432 -133 389 -168 b 456 554 389 197 413 385 b 647 504 514 549 574 535 l 647 0 z m 647 565 b 471 611 590 586 529 600 b 647 943 515 765 575 896 z "},"Á":{"ha":838,"x_min":0,"x_max":0,"o":"m 774 0 l 774 1022 b 663 1042 736 1036 690 1042 b 269 632 501 1042 363 853 b 188 636 238 635 208 636 b -60 483 40 636 -60 571 b 46 385 -60 419 -8 385 b 114 431 85 385 114 403 b 85 482 114 453 93 482 b 239 556 93 531 150 550 b 139 78 175 382 139 199 b 365 -158 139 -154 272 -158 b 315 54 346 -136 315 -101 b 382 553 315 193 339 383 b 572 504 442 547 497 535 l 572 0 z m 572 565 b 399 613 515 586 456 601 b 572 942 442 767 501 896 z m 551 1126 l 656 1126 l 768 1389 l 622 1389 z "},"Â":{"ha":838,"x_min":0,"x_max":0,"o":"m 774 0 l 774 1022 b 663 1042 736 1036 690 1042 b 269 632 501 1042 363 853 b 188 636 238 635 208 636 b -60 483 40 636 -60 571 b 46 385 -60 419 -8 385 b 114 431 85 385 114 403 b 85 482 114 453 93 482 b 239 556 93 531 150 550 b 139 78 175 382 139 199 b 365 -158 139 -154 272 -158 b 315 54 346 -136 315 -101 b 382 553 315 193 339 383 b 572 504 442 547 497 535 l 572 0 z m 794 1126 l 656 1389 l 626 1389 l 388 1126 l 449 1126 l 643 1238 l 750 1126 z m 572 565 b 399 613 515 586 456 601 b 572 942 442 767 501 896 z "},"Ä":{"ha":838,"x_min":0,"x_max":0,"o":"m 774 0 l 774 1022 b 663 1042 736 1036 690 1042 b 269 632 501 1042 363 853 b 188 636 238 635 208 636 b -60 483 40 636 -60 571 b 46 385 -60 419 -8 385 b 114 431 85 385 114 403 b 85 482 114 453 93 482 b 239 556 93 531 150 550 b 139 78 175 382 139 199 b 365 -158 139 -154 272 -158 b 315 54 346 -136 315 -101 b 382 553 315 193 339 383 b 572 504 442 547 497 535 l 572 0 z m 572 565 b 399 613 515 586 456 601 b 572 942 442 767 501 896 z m 679 1228 b 764 1143 679 1181 717 1143 b 849 1228 810 1143 849 1181 b 764 1313 849 1274 810 1313 b 679 1228 717 1313 679 1274 z m 429 1228 b 514 1143 429 1181 467 1143 b 599 1228 560 1143 599 1181 b 514 1313 599 1274 560 1313 b 429 1228 467 1313 429 1274 z "},"À":{"ha":838,"x_min":0,"x_max":0,"o":"m 774 0 l 774 1022 b 663 1042 736 1036 690 1042 b 269 632 501 1042 363 853 b 188 636 238 635 208 636 b -60 483 40 636 -60 571 b 46 385 -60 419 -8 385 b 114 431 85 385 114 403 b 85 482 114 453 93 482 b 239 556 93 531 150 550 b 139 78 175 382 139 199 b 365 -158 139 -154 272 -158 b 315 54 346 -136 315 -101 b 382 553 315 193 339 383 b 572 504 442 547 497 535 l 572 0 z m 572 565 b 399 613 515 586 456 601 b 572 942 442 767 501 896 z m 549 1126 l 653 1126 l 557 1389 l 411 1389 z "},"Ą":{"ha":838,"x_min":0,"x_max":0,"o":"m 733 7 l 721 0 l 774 0 l 774 1022 b 663 1042 736 1036 690 1042 b 269 632 501 1042 363 853 b 188 636 238 635 208 636 b -60 483 40 636 -60 571 b 46 385 -60 419 -8 385 b 114 431 85 385 114 403 b 85 482 114 453 93 482 b 239 556 93 531 150 550 b 139 78 175 382 139 199 b 365 -158 139 -154 272 -158 b 315 54 346 -136 315 -101 b 382 553 315 193 339 383 b 572 504 442 547 497 535 l 572 0 l 629 0 l 636 7 z m 572 565 b 399 613 515 586 456 601 b 572 942 442 767 501 896 z m 563 -137 b 696 -268 563 -196 611 -268 b 831 -182 769 -268 808 -214 l 825 -139 b 740 -186 800 -158 774 -186 b 669 -97 694 -186 669 -136 b 721 0 669 -58 693 -18 l 629 0 b 563 -137 585 -44 563 -97 z "},"Å":{"ha":838,"x_min":0,"x_max":0,"o":"m 774 0 l 774 1022 b 663 1042 736 1036 690 1042 b 269 632 501 1042 363 853 b 188 636 238 635 208 636 b -60 483 40 636 -60 571 b 46 385 -60 419 -8 385 b 114 431 85 385 114 403 b 85 482 114 453 93 482 b 239 556 93 531 150 550 b 139 78 175 382 139 199 b 365 -158 139 -154 272 -158 b 315 54 346 -136 315 -101 b 382 553 315 193 339 383 b 572 504 442 547 497 535 l 572 0 z m 600 1338 b 485 1226 524 1338 485 1283 b 596 1114 485 1169 524 1114 b 704 1229 669 1114 704 1169 b 600 1338 704 1281 678 1338 z m 572 565 b 399 613 515 586 456 601 b 572 942 442 767 501 896 z m 653 1225 b 599 1163 653 1186 636 1163 b 540 1226 556 1163 540 1193 b 599 1292 540 1271 567 1292 b 653 1225 640 1292 653 1258 z "},"Ã":{"ha":838,"x_min":0,"x_max":0,"o":"m 774 0 l 774 1022 b 663 1042 736 1036 690 1042 b 269 632 501 1042 363 853 b 188 636 238 635 208 636 b -60 483 40 636 -60 571 b 46 385 -60 419 -8 385 b 114 431 85 385 114 403 b 85 482 114 453 93 482 b 239 556 93 531 150 550 b 139 78 175 382 139 199 b 365 -158 139 -154 272 -158 b 315 54 346 -136 315 -101 b 382 553 315 193 339 383 b 572 504 442 547 497 535 l 572 0 z m 874 1278 b 793 1246 858 1257 828 1246 b 554 1292 713 1246 656 1292 b 351 1156 449 1292 376 1244 l 360 1153 b 444 1189 381 1176 408 1189 b 689 1138 521 1189 597 1138 b 883 1276 794 1138 881 1211 z m 572 565 b 399 613 515 586 456 601 b 572 942 442 767 501 896 z "},"B":{"ha":943,"x_min":0,"x_max":0,"o":"m 296 883 l 296 0 l 496 0 l 496 532 b 560 536 521 535 549 536 b 740 306 715 536 740 393 b 644 110 740 213 715 110 b 540 160 613 110 583 124 b 528 89 532 132 528 108 b 699 -24 528 4 600 -24 b 929 318 879 -24 929 179 b 701 601 929 454 863 579 b 804 797 769 649 804 724 b 469 1042 804 918 692 1042 b 25 714 221 1042 25 888 b 206 546 25 593 94 546 b 157 706 194 567 157 592 b 456 978 157 889 306 978 b 661 807 601 978 661 893 b 506 603 661 708 601 603 l 496 603 l 496 911 z "},"C":{"ha":701,"x_min":0,"x_max":0,"o":"m 771 250 b 531 104 725 163 635 104 b 292 508 397 104 292 200 b 476 976 292 740 351 976 b 574 864 535 976 574 924 b 533 764 574 825 557 778 b 621 728 567 733 599 728 b 696 822 678 728 696 767 b 429 1042 696 971 568 1042 b 65 486 143 1042 65 738 b 443 -22 65 147 206 -22 b 806 236 618 -22 765 69 z "},"Ć":{"ha":701,"x_min":0,"x_max":0,"o":"m 771 250 b 531 104 725 163 635 104 b 292 508 397 104 292 200 b 476 976 292 740 351 976 b 574 864 535 976 574 924 b 533 764 574 825 557 778 b 621 728 567 733 599 728 b 696 822 678 728 696 767 b 429 1042 696 971 568 1042 b 65 486 143 1042 65 738 b 443 -22 65 147 206 -22 b 806 236 618 -22 765 69 z m 414 1126 l 518 1126 l 631 1389 l 485 1389 z "},"Č":{"ha":701,"x_min":0,"x_max":0,"o":"m 771 250 b 531 104 725 163 635 104 b 292 508 397 104 292 200 b 476 976 292 740 351 976 b 574 864 535 976 574 924 b 533 764 574 825 557 778 b 621 728 567 733 599 728 b 696 822 678 728 696 767 b 429 1042 696 971 568 1042 b 65 486 143 1042 65 738 b 443 -22 65 147 206 -22 b 806 236 618 -22 765 69 z m 281 1389 l 419 1126 l 449 1126 l 688 1389 l 626 1389 l 432 1278 l 325 1389 z "},"Ç":{"ha":704,"x_min":0,"x_max":0,"o":"m 663 -178 b 558 -81 663 -115 628 -81 b 488 -92 538 -81 514 -85 l 500 -18 b 807 236 650 0 771 88 l 772 250 b 532 104 726 163 636 104 b 293 508 399 104 293 200 b 478 976 293 740 353 976 b 575 864 536 976 575 924 b 535 764 575 825 558 778 b 622 728 568 733 600 728 b 697 822 679 728 697 767 b 431 1042 697 971 569 1042 b 67 486 144 1042 67 738 b 440 -22 67 149 206 -21 l 421 -165 b 489 -149 433 -157 453 -149 b 556 -211 535 -149 556 -181 b 525 -257 556 -235 544 -257 b 414 -219 486 -257 471 -219 b 368 -264 388 -219 376 -242 b 525 -303 413 -285 454 -303 b 663 -178 596 -303 663 -258 z "},"Ĉ":{"ha":701,"x_min":0,"x_max":0,"o":"m 771 250 b 531 104 725 163 635 104 b 292 508 397 104 292 200 b 476 976 292 740 351 976 b 574 864 535 976 574 924 b 533 764 574 825 557 778 b 621 728 567 733 599 728 b 696 822 678 728 696 767 b 429 1042 696 971 568 1042 b 65 486 143 1042 65 738 b 443 -22 65 147 206 -22 b 806 236 618 -22 765 69 z m 633 1126 l 494 1389 l 465 1389 l 226 1126 l 288 1126 l 482 1238 l 589 1126 z "},"D":{"ha":982,"x_min":0,"x_max":0,"o":"m 296 883 l 296 0 l 497 0 l 497 54 b 672 -12 567 6 631 -12 b 946 535 838 -12 946 283 b 479 1042 946 811 814 1042 b 25 710 210 1042 25 893 b 207 546 25 596 96 546 b 158 699 200 558 158 593 b 460 978 158 881 279 978 b 746 575 694 978 746 814 b 578 104 746 342 697 104 b 497 131 556 104 528 113 l 497 911 z "},"E":{"ha":621,"x_min":0,"x_max":0,"o":"m 689 250 b 461 108 660 161 551 108 b 294 299 344 108 294 199 b 478 581 294 414 358 553 b 293 811 353 613 293 708 b 410 963 293 890 328 963 b 499 879 443 963 499 950 b 456 786 499 840 482 794 b 526 751 482 761 506 751 b 599 872 575 751 599 808 b 397 1044 599 999 504 1044 b 119 789 218 1044 119 917 b 246 579 119 710 157 635 b 57 283 119 547 57 406 b 371 -25 57 125 161 -25 b 724 236 536 -25 685 69 z "},"É":{"ha":621,"x_min":0,"x_max":0,"o":"m 689 250 b 461 108 660 161 551 108 b 294 299 344 108 294 199 b 478 581 294 414 358 553 b 293 811 353 613 293 708 b 410 963 293 890 328 963 b 499 879 443 963 499 950 b 456 786 499 840 482 794 b 526 751 482 761 506 751 b 599 872 575 751 599 808 b 397 1044 599 999 504 1044 b 119 789 218 1044 119 917 b 246 579 119 710 157 635 b 57 283 119 547 57 406 b 371 -25 57 125 161 -25 b 724 236 536 -25 685 69 z m 351 1126 l 456 1126 l 568 1389 l 422 1389 z "},"Ê":{"ha":621,"x_min":0,"x_max":0,"o":"m 689 250 b 461 108 660 161 551 108 b 294 299 344 108 294 199 b 478 581 294 414 358 553 b 293 811 353 613 293 708 b 410 963 293 890 328 963 b 499 879 443 963 499 950 b 456 786 499 840 482 794 b 526 751 482 761 506 751 b 599 872 575 751 599 808 b 397 1044 599 999 504 1044 b 119 789 218 1044 119 917 b 246 579 119 710 157 635 b 57 283 119 547 57 406 b 371 -25 57 125 161 -25 b 724 236 536 -25 685 69 z m 592 1126 l 453 1389 l 424 1389 l 185 1126 l 246 1126 l 440 1238 l 547 1126 z "},"Ë":{"ha":621,"x_min":0,"x_max":0,"o":"m 689 250 b 461 108 660 161 551 108 b 294 299 344 108 294 199 b 478 581 294 414 358 553 b 293 811 353 613 293 708 b 410 963 293 890 328 963 b 499 879 443 963 499 950 b 456 786 499 840 482 794 b 526 751 482 761 506 751 b 599 872 575 751 599 808 b 397 1044 599 999 504 1044 b 119 789 218 1044 119 917 b 246 579 119 710 157 635 b 57 283 119 547 57 406 b 371 -25 57 125 161 -25 b 724 236 536 -25 685 69 z m 206 1228 b 290 1143 206 1181 243 1143 b 375 1228 336 1143 375 1181 b 290 1313 375 1274 336 1313 b 206 1228 243 1313 206 1274 z m 456 1228 b 540 1143 456 1181 493 1143 b 625 1228 586 1143 625 1181 b 540 1313 625 1274 586 1313 b 456 1228 493 1313 456 1274 z "},"È":{"ha":621,"x_min":0,"x_max":0,"o":"m 689 250 b 461 108 660 161 551 108 b 294 299 344 108 294 199 b 478 581 294 414 358 553 b 293 811 353 613 293 708 b 410 963 293 890 328 963 b 499 879 443 963 499 950 b 456 786 499 840 482 794 b 526 751 482 761 506 751 b 599 872 575 751 599 808 b 397 1044 599 999 504 1044 b 119 789 218 1044 119 917 b 246 579 119 710 157 635 b 57 283 119 547 57 406 b 371 -25 57 125 161 -25 b 724 236 536 -25 685 69 z m 335 1126 l 439 1126 l 343 1389 l 197 1389 z "},"Ę":{"ha":624,"x_min":0,"x_max":0,"o":"m 690 250 b 463 108 661 161 553 108 b 296 299 346 108 296 199 b 479 581 296 414 360 553 b 294 811 354 613 294 708 b 411 963 294 890 329 963 b 500 879 444 963 500 950 b 457 786 500 840 483 794 b 528 751 483 761 507 751 b 600 872 576 751 600 808 b 399 1044 600 999 506 1044 b 121 789 219 1044 121 917 b 247 579 121 710 158 635 b 58 283 121 547 58 406 b 372 -25 58 125 163 -25 l 383 -25 b 339 -137 354 -62 339 -104 b 472 -268 339 -196 388 -268 b 607 -182 546 -268 585 -214 l 601 -139 b 517 -186 576 -158 550 -186 b 446 -97 471 -186 446 -136 b 485 -10 446 -64 463 -31 b 725 236 601 24 694 108 z "},"Ð":{"ha":982,"x_min":0,"x_max":0,"o":"m 158 699 b 460 978 158 881 279 978 b 746 575 694 978 746 814 b 578 104 746 342 697 104 b 497 131 556 104 528 113 l 497 479 l 600 479 l 606 582 l 497 582 l 497 911 l 296 883 l 296 582 l 249 582 l 243 479 l 296 479 l 296 0 l 497 0 l 497 54 b 672 -12 567 6 631 -12 b 946 535 838 -12 946 283 b 479 1042 946 811 814 1042 b 25 710 210 1042 25 893 b 207 546 25 596 96 546 b 158 699 200 558 158 593 z "},"€":{"ha":858,"x_min":0,"x_max":0,"o":"m 354 464 b 353 521 353 482 353 500 l 353 554 l 629 554 l 633 624 l 356 624 b 547 976 371 829 436 976 b 661 854 629 976 661 897 b 621 764 661 826 647 772 b 708 728 654 733 686 728 b 783 821 764 728 783 764 b 500 1042 783 974 646 1042 b 138 624 261 1042 158 858 l 40 624 l 36 554 l 133 554 l 133 528 b 135 464 133 506 133 485 l 39 464 l 35 394 l 142 394 b 544 -8 183 75 379 -8 b 826 132 656 -8 769 29 l 815 172 b 626 117 771 128 690 117 b 358 394 481 117 383 174 l 628 394 l 632 464 z "},"F":{"ha":775,"x_min":0,"x_max":0,"o":"m 494 625 l 494 900 b 671 875 557 888 619 875 b 790 1042 735 875 789 894 b 667 1025 754 1029 713 1025 b 415 1042 574 1025 510 1042 b 29 729 144 1042 29 904 b 215 546 29 601 90 546 b 158 736 196 567 158 614 b 292 928 158 881 210 922 l 292 0 l 494 0 l 494 522 l 697 522 l 697 625 z "},"G":{"ha":824,"x_min":0,"x_max":0,"o":"m 610 582 b 449 272 603 378 539 272 b 260 590 361 272 260 372 b 493 968 260 789 344 968 b 608 853 593 968 608 886 b 569 764 608 824 596 772 b 672 728 603 733 650 728 b 749 822 728 728 749 765 b 444 1042 749 981 589 1042 b 46 583 182 1042 46 843 b 382 151 46 313 193 151 b 592 269 478 151 549 193 l 592 -75 b 486 -218 592 -175 547 -218 b 375 -103 414 -218 375 -158 b 471 -18 375 -60 399 -18 b 540 -47 489 -18 515 -21 b 419 94 540 88 453 94 b 250 -90 293 94 250 -10 b 492 -287 250 -190 318 -287 b 774 3 710 -287 774 -136 l 774 581 z "},"Ğ":{"ha":824,"x_min":0,"x_max":0,"o":"m 610 582 b 449 272 603 378 539 272 b 260 590 361 272 260 372 b 493 968 260 789 344 968 b 608 853 593 968 608 886 b 569 764 608 824 596 772 b 672 728 603 733 650 728 b 749 822 728 728 749 765 b 444 1042 749 981 589 1042 b 46 583 182 1042 46 843 b 382 151 46 313 193 151 b 592 269 478 151 549 193 l 592 -75 b 486 -218 592 -175 547 -218 b 375 -103 414 -218 375 -158 b 471 -18 375 -60 399 -18 b 540 -47 489 -18 515 -21 b 419 94 540 88 453 94 b 250 -90 293 94 250 -10 b 492 -287 250 -190 318 -287 b 774 3 710 -287 774 -136 l 774 581 z m 540 1324 b 396 1199 540 1240 468 1199 b 251 1324 324 1199 251 1240 l 142 1324 b 394 1136 142 1199 268 1136 b 646 1324 521 1136 646 1199 z "},"H":{"ha":964,"x_min":0,"x_max":0,"o":"m 496 1039 b 438 1042 478 1040 458 1042 b 25 714 226 1042 25 890 b 206 546 25 593 94 546 b 157 708 194 568 157 592 b 296 942 157 818 207 899 l 296 0 l 496 0 l 496 522 l 700 522 l 700 0 l 900 0 l 900 1039 l 700 1039 l 700 625 l 496 625 z "},"I":{"ha":560,"x_min":0,"x_max":0,"o":"m 496 1039 b 438 1042 478 1040 458 1042 b 25 714 226 1042 25 890 b 206 546 25 593 94 546 b 157 708 194 567 157 594 b 296 942 157 818 207 899 l 296 0 l 496 0 z "},"Ĳ":{"ha":944,"x_min":0,"x_max":0,"o":"m 496 1039 b 438 1042 478 1040 458 1042 b 25 714 226 1042 25 890 b 206 546 25 593 94 546 b 157 708 194 567 157 594 b 296 942 157 818 207 899 l 296 0 l 351 0 b 336 -86 340 -25 336 -56 b 583 -287 336 -204 413 -287 b 881 56 807 -287 881 -143 l 881 1042 l 674 996 l 674 -47 b 571 -218 674 -185 622 -218 b 461 -115 519 -218 461 -186 b 535 -25 461 -67 489 -25 b 607 -54 556 -25 581 -33 b 610 -25 608 -46 610 -35 b 496 81 610 33 558 74 z "},"Í":{"ha":560,"x_min":0,"x_max":0,"o":"m 496 1039 b 438 1042 478 1040 458 1042 b 25 714 226 1042 25 890 b 206 546 25 593 94 546 b 157 708 194 567 157 594 b 296 942 157 818 207 899 l 296 0 l 496 0 z m 349 1126 l 453 1126 l 565 1389 l 419 1389 z "},"Î":{"ha":560,"x_min":0,"x_max":0,"o":"m 496 1039 b 438 1042 478 1040 458 1042 b 25 714 226 1042 25 890 b 206 546 25 593 94 546 b 157 708 194 567 157 594 b 296 942 157 818 207 899 l 296 0 l 496 0 z m 592 1126 l 453 1389 l 424 1389 l 185 1126 l 246 1126 l 440 1238 l 547 1126 z "},"Ï":{"ha":560,"x_min":0,"x_max":0,"o":"m 496 1039 b 438 1042 478 1040 458 1042 b 25 714 226 1042 25 890 b 206 546 25 593 94 546 b 157 708 194 567 157 594 b 296 942 157 818 207 899 l 296 0 l 496 0 z m 436 1228 b 521 1143 436 1181 474 1143 b 606 1228 567 1143 606 1181 b 521 1313 606 1274 567 1313 b 436 1228 474 1313 436 1274 z m 186 1228 b 271 1143 186 1181 224 1143 b 356 1228 317 1143 356 1181 b 271 1313 356 1274 317 1313 b 186 1228 224 1313 186 1274 z "},"Ì":{"ha":560,"x_min":0,"x_max":0,"o":"m 496 1039 b 438 1042 478 1040 458 1042 b 25 714 226 1042 25 890 b 206 546 25 593 94 546 b 157 708 194 567 157 594 b 296 942 157 818 207 899 l 296 0 l 496 0 z m 342 1126 l 446 1126 l 350 1389 l 204 1389 z "},"J":{"ha":603,"x_min":0,"x_max":0,"o":"m 483 1042 b 69 707 271 1042 69 894 b 250 546 69 597 139 546 b 201 701 243 560 201 593 b 343 944 201 829 258 906 l 343 -47 b 246 -218 343 -192 299 -218 b 121 -99 176 -218 121 -174 b 213 -18 121 -50 144 -18 b 290 -47 242 -18 261 -24 b 172 94 290 85 215 94 b -4 -89 22 94 -4 -21 b 253 -287 -4 -212 82 -287 b 539 42 463 -287 539 -174 l 539 1042 z "},"K":{"ha":901,"x_min":0,"x_max":0,"o":"m 496 1039 b 438 1042 478 1040 458 1042 b 25 707 226 1042 25 894 b 206 546 25 597 94 546 b 157 701 196 563 157 600 b 296 942 157 817 207 899 l 296 0 l 496 0 l 496 524 b 543 529 508 526 526 529 b 651 360 628 529 651 460 b 642 131 651 294 642 182 b 774 -24 642 24 683 -24 b 908 0 808 -24 853 -17 b 829 154 860 18 829 64 b 836 358 829 197 836 306 b 619 592 836 529 761 592 b 571 590 599 592 590 590 l 867 1035 l 738 1035 l 496 594 z "},"L":{"ha":629,"x_min":0,"x_max":0,"o":"m 494 1025 b 436 1028 476 1026 457 1028 b 24 693 225 1028 24 881 b 204 532 24 583 93 532 b 156 689 193 549 156 589 b 293 928 156 803 206 885 l 293 -33 b 325 -32 304 -32 314 -32 b 956 -347 567 -32 781 -347 b 1110 -154 1060 -347 1110 -237 b 1108 -129 1110 -146 1110 -137 b 999 -151 1072 -146 1033 -151 b 494 26 819 -151 646 -7 z "},"Ł":{"ha":686,"x_min":0,"x_max":0,"o":"m 496 1025 b 438 1028 478 1026 458 1028 b 25 693 226 1028 25 881 b 206 532 25 583 94 532 b 157 689 194 549 157 589 b 294 928 157 803 207 885 l 294 494 l 207 429 l 219 356 l 294 410 l 294 -33 b 326 -32 306 -32 315 -32 b 957 -347 568 -32 782 -347 b 1111 -154 1061 -347 1111 -237 b 1110 -129 1111 -146 1111 -137 b 1000 -151 1074 -146 1035 -151 b 496 26 821 -151 647 -7 l 496 557 l 651 671 l 639 756 l 496 647 z "},"M":{"ha":1094,"x_min":0,"x_max":0,"o":"m 285 0 l 383 624 l 489 0 l 679 0 l 808 624 l 851 0 l 1051 0 l 981 1022 l 781 1022 l 631 290 l 507 1022 b 394 1042 471 1035 435 1042 b 29 710 204 1042 29 874 b 210 546 29 592 103 546 b 160 708 199 567 160 596 b 322 951 160 826 219 911 l 174 0 z "},"N":{"ha":997,"x_min":0,"x_max":0,"o":"m 807 1039 l 807 286 l 483 1022 b 382 1042 442 1040 404 1042 b 28 731 144 1042 28 882 b 211 546 28 597 90 546 b 161 717 194 574 161 599 b 294 942 161 826 210 901 l 294 0 l 428 0 l 428 692 l 742 0 l 933 0 l 933 1039 z "},"Ń":{"ha":997,"x_min":0,"x_max":0,"o":"m 807 1039 l 807 286 l 483 1022 b 382 1042 442 1040 404 1042 b 28 731 144 1042 28 882 b 211 546 28 597 90 546 b 161 717 194 574 161 599 b 294 942 161 826 210 901 l 294 0 l 428 0 l 428 692 l 742 0 l 933 0 l 933 1039 z m 575 1126 l 679 1126 l 792 1389 l 646 1389 z "},"Ñ":{"ha":997,"x_min":0,"x_max":0,"o":"m 807 1039 l 807 286 l 483 1022 b 382 1042 442 1040 404 1042 b 28 731 144 1042 28 882 b 211 546 28 597 90 546 b 161 717 194 574 161 599 b 294 942 161 826 210 901 l 294 0 l 428 0 l 428 692 l 742 0 l 933 0 l 933 1039 z m 874 1278 b 793 1246 858 1257 828 1246 b 554 1292 713 1246 656 1292 b 351 1156 449 1292 376 1244 l 360 1153 b 444 1189 381 1176 408 1189 b 689 1138 521 1189 597 1138 b 883 1276 794 1138 881 1211 z "},"O":{"ha":968,"x_min":0,"x_max":0,"o":"m 543 911 b 472 922 517 919 492 922 b 221 432 279 922 221 633 b 556 -8 221 100 378 -8 b 931 538 851 -8 931 294 b 507 1042 931 810 831 1042 b 24 694 240 1042 24 883 b 193 546 24 592 88 546 b 156 674 174 575 156 606 b 482 978 156 868 303 978 b 736 574 619 978 736 913 b 568 115 736 336 679 115 b 428 433 515 115 428 165 b 543 911 428 610 465 858 z "},"Œ":{"ha":1208,"x_min":0,"x_max":0,"o":"m 929 582 b 814 924 924 717 890 839 b 1099 875 904 911 996 875 b 1196 1042 1192 875 1189 983 b 1074 1025 1160 1029 1117 1025 b 840 1042 986 1025 896 1042 b 669 1017 763 1042 713 1033 b 507 1042 622 1033 569 1042 b 24 694 240 1042 24 883 b 193 546 24 592 88 546 b 156 674 174 575 156 606 b 482 978 156 868 303 978 b 736 574 619 978 736 913 b 568 115 736 336 679 115 b 428 433 515 115 428 165 b 543 911 428 610 465 858 b 472 922 517 919 492 922 b 221 432 279 922 221 633 b 556 -8 221 100 378 -8 b 644 0 588 -8 618 -4 l 1181 0 l 1181 147 l 839 147 b 929 479 897 240 922 363 l 1113 479 l 1113 582 z "},"Ó":{"ha":968,"x_min":0,"x_max":0,"o":"m 543 911 b 472 922 517 919 492 922 b 221 432 279 922 221 633 b 556 -8 221 100 378 -8 b 931 538 851 -8 931 294 b 507 1042 931 810 831 1042 b 24 694 240 1042 24 883 b 193 546 24 592 88 546 b 156 674 174 575 156 606 b 482 978 156 868 303 978 b 736 574 619 978 736 913 b 568 115 736 336 679 115 b 428 433 515 115 428 165 b 543 911 428 610 465 858 z m 514 1126 l 618 1126 l 731 1389 l 585 1389 z "},"Ô":{"ha":968,"x_min":0,"x_max":0,"o":"m 543 911 b 472 922 517 919 492 922 b 221 432 279 922 221 633 b 556 -8 221 100 378 -8 b 931 538 851 -8 931 294 b 507 1042 931 810 831 1042 b 24 694 240 1042 24 883 b 193 546 24 592 88 546 b 156 674 174 575 156 606 b 482 978 156 868 303 978 b 736 574 619 978 736 913 b 568 115 736 336 679 115 b 428 433 515 115 428 165 b 543 911 428 610 465 858 z m 776 1126 l 638 1389 l 608 1389 l 369 1126 l 431 1126 l 625 1238 l 732 1126 z "},"Ö":{"ha":968,"x_min":0,"x_max":0,"o":"m 543 911 b 472 922 517 919 492 922 b 221 432 279 922 221 633 b 556 -8 221 100 378 -8 b 931 538 851 -8 931 294 b 507 1042 931 810 831 1042 b 24 694 240 1042 24 883 b 193 546 24 592 88 546 b 156 674 174 575 156 606 b 482 978 156 868 303 978 b 736 574 619 978 736 913 b 568 115 736 336 679 115 b 428 433 515 115 428 165 b 543 911 428 610 465 858 z m 349 1228 b 433 1143 349 1181 386 1143 b 518 1228 479 1143 518 1181 b 433 1313 518 1274 479 1313 b 349 1228 386 1313 349 1274 z m 599 1228 b 683 1143 599 1181 636 1143 b 768 1228 729 1143 768 1181 b 683 1313 768 1274 729 1313 b 599 1228 636 1313 599 1274 z "},"Ò":{"ha":968,"x_min":0,"x_max":0,"o":"m 543 911 b 472 922 517 919 492 922 b 221 432 279 922 221 633 b 556 -8 221 100 378 -8 b 931 538 851 -8 931 294 b 507 1042 931 810 831 1042 b 24 694 240 1042 24 883 b 193 546 24 592 88 546 b 156 674 174 575 156 606 b 482 978 156 868 303 978 b 736 574 619 978 736 913 b 568 115 736 336 679 115 b 428 433 515 115 428 165 b 543 911 428 610 465 858 z m 521 1126 l 625 1126 l 529 1389 l 383 1389 z "},"Ő":{"ha":968,"x_min":0,"x_max":0,"o":"m 543 911 b 472 922 517 919 492 922 b 221 432 279 922 221 633 b 556 -8 221 100 378 -8 b 931 538 851 -8 931 294 b 507 1042 931 810 831 1042 b 24 694 240 1042 24 883 b 193 546 24 592 88 546 b 156 674 174 575 156 606 b 482 978 156 868 303 978 b 736 574 619 978 736 913 b 568 115 736 336 679 115 b 428 433 515 115 428 165 b 543 911 428 610 465 858 z m 456 1126 l 546 1126 l 658 1389 l 526 1389 z m 636 1126 l 726 1126 l 839 1389 l 707 1389 z "},"Ø":{"ha":917,"x_min":0,"x_max":0,"o":"m 599 -99 l 599 0 b 896 504 819 46 896 301 b 599 965 896 722 826 919 l 599 1042 l 526 1042 l 526 974 b 492 975 515 974 503 975 b 22 654 231 975 22 822 b 186 511 22 550 85 511 b 150 638 183 526 150 538 b 472 915 150 808 290 915 b 526 910 490 915 508 914 l 526 854 b 461 864 503 861 482 864 b 211 393 276 864 211 589 b 526 -8 211 96 346 -8 l 526 -99 z m 411 393 b 526 849 411 563 451 788 l 526 97 b 411 393 444 108 411 242 z m 710 536 b 599 125 710 369 667 193 l 599 882 b 710 536 667 836 710 735 z "},"Õ":{"ha":968,"x_min":0,"x_max":0,"o":"m 543 911 b 472 922 517 919 492 922 b 221 432 279 922 221 633 b 556 -8 221 100 378 -8 b 931 538 851 -8 931 294 b 507 1042 931 810 831 1042 b 24 694 240 1042 24 883 b 193 546 24 592 88 546 b 156 674 174 575 156 606 b 482 978 156 868 303 978 b 736 574 619 978 736 913 b 568 115 736 336 679 115 b 428 433 515 115 428 165 b 543 911 428 610 465 858 z m 811 1278 b 731 1246 796 1257 765 1246 b 492 1292 650 1246 593 1292 b 289 1156 386 1292 314 1244 l 297 1153 b 382 1189 318 1176 346 1189 b 626 1138 458 1189 535 1138 b 821 1276 732 1138 818 1211 z "},"P":{"ha":836,"x_min":0,"x_max":0,"o":"m 296 883 l 296 0 l 496 0 l 496 396 l 503 396 b 833 729 722 396 833 576 b 456 1042 833 917 681 1042 b 25 707 221 1042 25 894 b 206 546 25 596 94 546 b 157 697 188 571 157 599 b 439 978 157 892 274 978 b 674 751 647 978 674 842 b 496 447 674 611 610 460 l 496 911 z "},"Q":{"ha":968,"x_min":0,"x_max":0,"o":"m 543 911 b 472 922 517 919 492 922 b 221 432 279 922 221 633 b 556 -8 221 100 378 -8 b 674 11 600 -8 639 -1 b 885 -157 715 -72 765 -157 b 1006 -37 950 -157 989 -132 b 972 -40 994 -39 986 -40 b 778 72 886 -40 832 14 b 931 538 893 179 931 372 b 507 1042 931 810 831 1042 b 24 694 240 1042 24 883 b 193 546 24 592 88 546 b 156 674 174 575 156 606 b 482 978 156 868 303 978 b 736 574 619 978 736 913 b 661 182 736 415 711 265 b 544 218 628 204 590 218 b 461 204 519 218 492 214 b 428 433 442 253 428 325 b 543 911 428 610 465 858 z m 521 167 b 607 125 557 167 585 150 b 568 115 594 118 582 115 b 486 163 543 115 513 125 b 521 167 499 165 510 167 z "},"R":{"ha":908,"x_min":0,"x_max":0,"o":"m 296 883 l 296 0 l 496 0 l 496 524 b 542 529 513 528 528 529 b 651 360 628 529 651 461 b 642 131 651 294 642 182 b 774 -24 642 24 683 -24 b 908 0 808 -24 853 -17 b 829 154 860 18 829 64 b 836 358 829 197 836 306 b 700 582 836 493 790 560 b 807 790 771 631 807 710 b 467 1042 807 951 665 1042 b 25 707 206 1042 25 888 b 206 546 25 596 94 546 b 158 699 199 560 158 594 b 451 978 158 881 282 978 b 658 796 633 978 658 867 b 507 590 658 692 604 590 l 496 590 l 496 911 z "},"S":{"ha":735,"x_min":0,"x_max":0,"o":"m 633 867 b 397 1042 633 1035 450 1042 b 97 794 213 1042 97 954 b 504 228 97 493 504 519 b 365 86 504 125 454 86 b 210 221 276 86 210 125 b 350 346 210 321 283 346 b 213 438 324 418 256 438 b 46 231 124 438 46 358 b 388 -25 46 40 217 -25 b 722 267 579 -25 722 58 b 285 843 722 632 285 574 b 403 971 285 919 319 971 b 515 872 478 971 515 929 b 475 778 515 836 501 796 b 544 749 497 757 519 749 b 633 867 601 749 633 797 z "},"Ś":{"ha":735,"x_min":0,"x_max":0,"o":"m 633 867 b 397 1042 633 1035 450 1042 b 97 794 213 1042 97 954 b 504 228 97 493 504 519 b 365 86 504 125 454 86 b 210 221 276 86 210 125 b 350 346 210 321 283 346 b 213 438 324 418 256 438 b 46 231 124 438 46 358 b 388 -25 46 40 217 -25 b 722 267 579 -25 722 58 b 285 843 722 632 285 574 b 403 971 285 919 319 971 b 515 872 478 971 515 929 b 475 778 515 836 501 796 b 544 749 497 757 519 749 b 633 867 601 749 633 797 z m 322 1126 l 426 1126 l 539 1389 l 393 1389 z "},"Š":{"ha":735,"x_min":0,"x_max":0,"o":"m 633 867 b 397 1042 633 1035 450 1042 b 97 794 213 1042 97 954 b 504 228 97 493 504 519 b 365 86 504 125 454 86 b 210 221 276 86 210 125 b 350 346 210 321 283 346 b 213 438 324 418 256 438 b 46 231 124 438 46 358 b 388 -25 46 40 217 -25 b 722 267 579 -25 722 58 b 285 843 722 632 285 574 b 403 971 285 919 319 971 b 515 872 478 971 515 929 b 475 778 515 836 501 796 b 544 749 497 757 519 749 b 633 867 601 749 633 797 z m 235 1389 l 374 1126 l 403 1126 l 642 1389 l 581 1389 l 386 1278 l 279 1389 z "},"T":{"ha":933,"x_min":0,"x_max":0,"o":"m 808 861 b 956 989 914 861 956 906 b 951 1038 956 1004 954 1019 b 788 1008 917 1022 864 1008 b 442 1040 672 1008 590 1040 b 28 731 139 1040 28 906 b 214 544 28 592 97 544 b 163 706 200 563 163 585 b 378 919 163 840 210 919 l 392 919 l 392 0 l 593 0 l 593 892 b 808 861 672 875 749 861 z "},"Þ":{"ha":839,"x_min":0,"x_max":0,"o":"m 265 1014 l 265 853 b 26 564 129 797 26 685 b 208 393 26 444 86 393 b 158 560 201 414 158 426 b 265 776 158 657 194 732 l 265 0 l 467 0 l 467 243 l 506 243 b 835 560 724 243 835 403 b 467 888 835 719 714 878 l 467 1042 z m 467 294 l 467 825 b 676 574 611 819 676 701 b 485 294 676 440 608 294 z "},"U":{"ha":1071,"x_min":0,"x_max":0,"o":"m 811 1039 l 811 278 b 676 126 811 176 744 126 b 543 278 610 126 543 176 l 543 1035 b 475 1042 514 1040 499 1042 b 24 713 228 1042 24 890 b 204 546 24 593 93 546 b 156 708 189 569 156 596 b 344 961 156 836 225 926 l 344 292 b 676 -10 344 90 510 -10 b 1008 292 842 -10 1008 90 l 1008 1039 z "},"Ú":{"ha":1071,"x_min":0,"x_max":0,"o":"m 811 1039 l 811 278 b 676 126 811 176 744 126 b 543 278 610 126 543 176 l 543 1035 b 475 1042 514 1040 499 1042 b 24 713 228 1042 24 890 b 204 546 24 593 93 546 b 156 708 189 569 156 596 b 344 961 156 836 225 926 l 344 292 b 676 -10 344 90 510 -10 b 1008 292 842 -10 1008 90 l 1008 1039 z m 594 1126 l 699 1126 l 811 1389 l 665 1389 z "},"Û":{"ha":1071,"x_min":0,"x_max":0,"o":"m 811 1039 l 811 278 b 676 126 811 176 744 126 b 543 278 610 126 543 176 l 543 1035 b 475 1042 514 1040 499 1042 b 24 713 228 1042 24 890 b 204 546 24 593 93 546 b 156 708 189 569 156 596 b 344 961 156 836 225 926 l 344 292 b 676 -10 344 90 510 -10 b 1008 292 842 -10 1008 90 l 1008 1039 z m 849 1126 l 710 1389 l 681 1389 l 442 1126 l 503 1126 l 697 1238 l 804 1126 z "},"Ü":{"ha":1071,"x_min":0,"x_max":0,"o":"m 811 1039 l 811 278 b 676 126 811 176 744 126 b 543 278 610 126 543 176 l 543 1035 b 475 1042 514 1040 499 1042 b 24 713 228 1042 24 890 b 204 546 24 593 93 546 b 156 708 189 569 156 596 b 344 961 156 836 225 926 l 344 292 b 676 -10 344 90 510 -10 b 1008 292 842 -10 1008 90 l 1008 1039 z m 714 1228 b 799 1143 714 1181 751 1143 b 883 1228 844 1143 883 1181 b 799 1313 883 1274 844 1313 b 714 1228 751 1313 714 1274 z m 464 1228 b 549 1143 464 1181 501 1143 b 633 1228 594 1143 633 1181 b 549 1313 633 1274 594 1313 b 464 1228 501 1313 464 1274 z "},"Ù":{"ha":1071,"x_min":0,"x_max":0,"o":"m 811 1039 l 811 278 b 676 126 811 176 744 126 b 543 278 610 126 543 176 l 543 1035 b 475 1042 514 1040 499 1042 b 24 713 228 1042 24 890 b 204 546 24 593 93 546 b 156 708 189 569 156 596 b 344 961 156 836 225 926 l 344 292 b 676 -10 344 90 510 -10 b 1008 292 842 -10 1008 90 l 1008 1039 z m 628 1126 l 732 1126 l 636 1389 l 490 1389 z "},"Ű":{"ha":1071,"x_min":0,"x_max":0,"o":"m 811 1039 l 811 278 b 676 126 811 176 744 126 b 543 278 610 126 543 176 l 543 1035 b 475 1042 514 1040 499 1042 b 24 713 228 1042 24 890 b 204 546 24 593 93 546 b 156 708 189 569 156 596 b 344 961 156 836 225 926 l 344 292 b 676 -10 344 90 510 -10 b 1008 292 842 -10 1008 90 l 1008 1039 z m 729 1126 l 819 1126 l 932 1389 l 800 1389 z m 549 1126 l 639 1126 l 751 1389 l 619 1389 z "},"V":{"ha":990,"x_min":0,"x_max":0,"o":"m 494 1039 b 436 1042 476 1040 457 1042 b 24 714 225 1042 24 890 b 204 546 24 593 93 546 b 156 708 193 567 156 596 b 307 949 156 822 210 910 l 558 0 l 764 0 l 997 1035 l 894 1035 l 711 185 z "},"W":{"ha":1401,"x_min":0,"x_max":0,"o":"m 494 1039 b 436 1042 476 1040 457 1042 b 24 707 225 1042 24 894 b 204 546 24 597 93 546 b 156 703 197 561 156 593 b 307 949 156 825 208 908 l 503 0 l 703 0 l 844 707 l 983 0 l 1193 0 l 1386 1035 l 1279 1035 l 1142 185 l 975 1035 l 799 1035 l 661 185 z "},"X":{"ha":901,"x_min":0,"x_max":0,"o":"m 904 0 l 693 533 l 901 1035 l 811 1035 l 647 651 l 496 1039 b 438 1042 478 1040 458 1042 b 25 714 226 1042 25 890 b 206 546 25 593 94 546 b 157 708 194 568 157 592 b 308 949 157 822 211 910 l 488 494 l 258 0 l 349 0 l 533 378 l 683 0 z "},"Y":{"ha":901,"x_min":0,"x_max":0,"o":"m 739 0 l 739 428 l 918 1035 l 826 1035 l 693 540 l 494 1039 b 436 1042 476 1040 457 1042 b 24 714 225 1042 24 890 b 204 546 24 593 93 546 b 156 708 193 568 156 592 b 307 949 156 822 210 910 l 517 428 l 517 0 z "},"Ý":{"ha":901,"x_min":0,"x_max":0,"o":"m 739 0 l 739 428 l 918 1035 l 826 1035 l 693 540 l 494 1039 b 436 1042 476 1040 457 1042 b 24 714 225 1042 24 890 b 204 546 24 593 93 546 b 156 708 193 568 156 592 b 307 949 156 822 210 910 l 517 428 l 517 0 z m 597 1126 l 701 1126 l 814 1389 l 668 1389 z "},"Ÿ":{"ha":901,"x_min":0,"x_max":0,"o":"m 739 0 l 739 428 l 918 1035 l 826 1035 l 693 540 l 494 1039 b 436 1042 476 1040 457 1042 b 24 714 225 1042 24 890 b 204 546 24 593 93 546 b 156 708 193 568 156 592 b 307 949 156 822 210 910 l 517 428 l 517 0 z m 714 1228 b 799 1143 714 1181 751 1143 b 883 1228 844 1143 883 1181 b 799 1313 883 1274 844 1313 b 714 1228 751 1313 714 1274 z m 464 1228 b 549 1143 464 1181 501 1143 b 633 1228 594 1143 633 1181 b 549 1313 633 1274 594 1313 b 464 1228 501 1313 464 1274 z "},"Z":{"ha":772,"x_min":0,"x_max":0,"o":"m 653 118 b 460 88 640 93 525 88 b 325 90 414 88 361 90 l 714 1042 l 168 1042 b 25 918 71 1042 25 981 b 117 815 25 875 51 815 b 181 888 158 815 181 853 b 149 942 181 911 171 933 b 269 969 149 964 207 969 b 464 967 317 969 435 967 l 72 0 l 629 0 b 776 140 728 0 776 75 b 685 242 776 185 747 242 b 617 178 651 242 617 224 b 653 118 617 132 640 118 z "},"Ź":{"ha":772,"x_min":0,"x_max":0,"o":"m 653 118 b 460 88 640 93 525 88 b 325 90 414 88 361 90 l 714 1042 l 168 1042 b 25 918 71 1042 25 981 b 117 815 25 875 51 815 b 181 888 158 815 181 853 b 149 942 181 911 171 933 b 269 969 149 964 207 969 b 464 967 317 969 435 967 l 72 0 l 629 0 b 776 140 728 0 776 75 b 685 242 776 185 747 242 b 617 178 651 242 617 224 b 653 118 617 132 640 118 z m 367 1126 l 471 1126 l 583 1389 l 438 1389 z "},"Ž":{"ha":772,"x_min":0,"x_max":0,"o":"m 653 118 b 460 88 640 93 525 88 b 325 90 414 88 361 90 l 714 1042 l 168 1042 b 25 918 71 1042 25 981 b 117 815 25 875 51 815 b 181 888 158 815 181 853 b 149 942 181 911 171 933 b 269 969 149 964 207 969 b 464 967 317 969 435 967 l 72 0 l 629 0 b 776 140 728 0 776 75 b 685 242 776 185 747 242 b 617 178 651 242 617 224 b 653 118 617 132 640 118 z m 257 1389 l 396 1126 l 425 1126 l 664 1389 l 603 1389 l 408 1278 l 301 1389 z "},"Ż":{"ha":772,"x_min":0,"x_max":0,"o":"m 297 1226 b 385 1139 297 1178 336 1139 b 474 1226 433 1139 474 1178 b 385 1315 474 1275 433 1315 b 297 1226 336 1315 297 1275 z m 653 118 b 460 88 640 93 525 88 b 325 90 414 88 361 90 l 714 1042 l 168 1042 b 25 918 71 1042 25 981 b 117 815 25 875 51 815 b 181 888 158 815 181 853 b 149 942 181 911 171 933 b 269 969 149 964 207 969 b 464 967 317 969 435 967 l 72 0 l 629 0 b 776 140 728 0 776 75 b 685 242 776 185 747 242 b 617 178 651 242 617 224 b 653 118 617 132 640 118 z "},"a":{"ha":731,"x_min":0,"x_max":0,"o":"m 438 694 l 438 628 b 307 701 414 693 353 701 b 42 314 114 701 42 483 b 286 -8 42 72 169 -8 b 465 119 385 -8 436 56 b 631 -8 485 40 533 -8 b 867 249 706 -8 836 22 l 808 249 b 710 126 803 179 764 126 b 638 222 656 126 638 144 l 638 694 z m 438 249 b 347 126 438 168 388 126 b 244 326 313 126 244 129 b 369 615 244 447 279 615 b 438 561 415 615 433 576 z "},"á":{"ha":731,"x_min":0,"x_max":0,"o":"m 438 694 l 438 628 b 307 701 414 693 353 701 b 42 314 114 701 42 483 b 286 -8 42 72 169 -8 b 465 119 385 -8 436 56 b 631 -8 485 40 533 -8 b 867 249 706 -8 836 22 l 808 249 b 710 126 803 179 764 126 b 638 222 656 126 638 144 l 638 694 z m 369 615 b 438 563 414 615 432 578 l 438 249 b 347 126 438 168 388 126 b 244 326 313 126 244 129 b 369 615 244 447 279 615 z m 307 779 l 411 779 l 524 1042 l 378 1042 z "},"â":{"ha":731,"x_min":0,"x_max":0,"o":"m 438 694 l 438 628 b 307 701 414 693 353 701 b 42 314 114 701 42 483 b 286 -8 42 72 169 -8 b 465 119 385 -8 436 56 b 631 -8 485 40 533 -8 b 867 249 706 -8 836 22 l 808 249 b 710 126 803 179 764 126 b 638 222 656 126 638 144 l 638 694 z m 369 615 b 438 563 414 615 432 578 l 438 247 b 347 126 438 167 388 126 b 244 326 313 126 244 129 b 369 615 244 447 279 615 z m 592 779 l 453 1042 l 424 1042 l 185 779 l 246 779 l 440 890 l 547 779 z "},"´":{"ha":439,"x_min":0,"x_max":0,"o":"m 1 779 l 106 779 l 218 1042 l 72 1042 z "},"ä":{"ha":731,"x_min":0,"x_max":0,"o":"m 438 694 l 438 628 b 307 701 414 693 353 701 b 42 314 114 701 42 483 b 286 -8 42 72 169 -8 b 465 119 385 -8 436 56 b 631 -8 485 40 533 -8 b 867 249 706 -8 836 22 l 808 249 b 710 126 803 179 764 126 b 638 222 656 126 638 144 l 638 694 z m 438 249 b 347 126 438 168 388 126 b 244 326 313 126 244 129 b 369 615 244 447 279 615 b 438 561 415 615 433 576 z m 201 881 b 286 796 201 833 239 796 b 371 881 332 796 371 833 b 286 965 371 926 332 965 b 201 881 239 965 201 926 z m 451 881 b 536 796 451 833 489 796 b 621 881 582 796 621 833 b 536 965 621 926 582 965 b 451 881 489 965 451 926 z "},"æ":{"ha":897,"x_min":0,"x_max":0,"o":"m 285 -8 b 454 125 396 -8 432 54 b 686 -6 500 32 585 -6 b 1015 249 875 -6 964 124 l 968 249 b 735 108 910 164 868 108 b 625 236 685 108 647 132 b 618 281 622 250 619 265 b 882 529 765 289 882 396 b 696 707 882 643 819 707 b 521 646 621 707 563 683 b 329 701 465 685 399 701 b 99 593 251 701 179 699 l 146 553 b 300 618 179 589 217 618 b 411 476 372 618 411 557 b 403 397 411 451 408 419 b 329 403 386 400 363 403 b 64 219 176 403 64 354 b 285 -8 64 36 189 -8 z m 774 538 b 614 347 774 443 707 353 b 722 633 615 481 650 633 b 774 538 747 633 774 611 z m 386 318 b 411 317 394 318 401 318 b 340 126 410 165 386 126 b 258 217 321 126 258 133 b 386 318 258 278 307 318 z "},"à":{"ha":731,"x_min":0,"x_max":0,"o":"m 438 694 l 438 628 b 307 701 414 693 353 701 b 42 314 114 701 42 483 b 286 -8 42 72 169 -8 b 465 119 385 -8 436 56 b 631 -8 485 40 533 -8 b 867 249 706 -8 836 22 l 808 249 b 710 126 803 179 764 126 b 638 222 656 126 638 144 l 638 694 z m 369 615 b 438 563 414 615 432 578 l 438 247 b 347 126 438 167 388 126 b 244 326 313 126 244 129 b 369 615 244 447 279 615 z m 335 779 l 439 779 l 343 1042 l 197 1042 z "},"&":{"ha":931,"x_min":0,"x_max":0,"o":"m 911 574 b 793 514 897 532 844 514 b 686 521 758 514 725 521 b 460 325 543 521 463 439 l 469 324 b 586 386 486 365 526 386 b 697 378 621 386 658 379 b 456 108 681 196 610 108 b 288 299 338 108 288 197 b 471 581 288 414 351 553 b 286 808 343 613 286 714 b 392 967 286 889 325 967 b 492 860 436 967 492 950 b 456 764 492 819 482 778 b 519 732 479 738 499 732 b 594 858 567 732 594 794 b 361 1044 594 949 532 1044 b 113 790 206 1044 113 917 b 239 579 113 710 150 635 b 50 282 113 547 50 407 b 365 -25 50 125 154 -25 b 746 381 600 -25 742 156 b 922 551 849 396 922 478 b 919 574 922 558 921 567 z "},"ą":{"ha":731,"x_min":0,"x_max":0,"o":"m 438 694 l 438 622 b 307 701 428 663 396 701 b 42 314 114 701 42 483 b 286 -8 42 72 169 -8 b 465 118 383 -8 436 54 b 610 -7 488 42 540 0 b 550 -139 571 -50 550 -99 b 686 -268 550 -194 599 -268 b 819 -182 758 -268 790 -214 b 813 -139 815 -165 814 -156 b 728 -186 789 -157 761 -186 b 657 -99 682 -186 657 -135 b 711 7 657 -50 688 -6 b 854 249 769 36 832 96 l 796 249 b 711 118 789 179 765 118 b 638 222 654 118 638 154 l 638 694 z m 369 615 b 438 567 411 615 431 585 l 438 249 b 347 126 438 168 388 126 b 244 326 313 126 244 129 b 369 615 244 447 279 615 z "},"å":{"ha":731,"x_min":0,"x_max":0,"o":"m 438 694 l 438 628 b 307 701 414 693 353 701 b 42 314 114 701 42 483 b 286 -8 42 72 169 -8 b 465 119 385 -8 436 56 b 631 -8 485 40 533 -8 b 867 249 706 -8 836 22 l 808 249 b 710 126 803 179 764 126 b 638 222 656 126 638 144 l 638 694 z m 438 249 b 347 126 438 168 388 126 b 244 326 313 126 244 129 b 369 615 244 447 279 615 b 438 561 415 615 433 576 z m 390 990 b 275 879 314 990 275 936 b 386 767 275 822 314 767 b 494 882 460 767 494 822 b 390 990 494 933 468 990 z m 443 878 b 389 815 443 839 426 815 b 331 879 346 815 331 846 b 389 944 331 924 357 944 b 443 878 431 944 443 911 z "},"^":{"ha":585,"x_min":0,"x_max":0,"o":"m 311 779 l 172 1042 l 143 1042 l -96 779 l -35 779 l 160 890 l 267 779 z "},"~":{"ha":608,"x_min":0,"x_max":0,"o":"m 563 931 b 482 899 547 910 517 899 b 243 944 401 899 344 944 b 40 808 138 944 65 897 l 49 806 b 133 842 69 829 97 842 b 378 790 210 842 286 790 b 572 929 483 790 569 864 z "},"*":{"ha":556,"x_min":0,"x_max":0,"o":"m 231 1044 l 231 854 l 74 943 l 39 871 l 194 783 l 49 696 l 97 624 l 231 703 l 231 522 l 321 522 l 321 711 l 478 624 l 513 696 l 361 781 l 511 871 l 463 943 l 321 858 l 321 1044 z "},"@":{"ha":783,"x_min":0,"x_max":0,"o":"m 331 -53 b 614 99 503 -53 614 11 b 582 158 614 121 607 147 b 371 60 536 100 468 60 b 186 256 231 60 186 144 b 517 700 186 447 321 700 b 660 543 626 700 660 621 b 539 264 660 422 578 264 b 522 290 531 264 522 271 b 528 322 522 300 525 311 l 590 589 l 514 597 l 508 576 b 454 600 499 589 481 600 b 272 289 340 600 272 411 b 354 167 272 206 304 167 b 442 225 394 167 419 192 b 504 189 451 204 471 189 b 740 556 622 189 740 375 b 521 774 740 747 606 774 b 47 228 263 774 47 531 b 331 -53 47 14 200 -53 z m 438 300 b 433 275 435 292 433 283 b 382 249 414 260 394 249 b 353 311 360 249 353 285 b 468 546 353 382 403 546 b 497 532 481 546 490 540 z "},"ã":{"ha":731,"x_min":0,"x_max":0,"o":"m 438 694 l 438 628 b 307 701 414 693 353 701 b 42 314 114 701 42 483 b 286 -8 42 72 169 -8 b 465 119 385 -8 436 56 b 631 -8 485 40 533 -8 b 867 249 706 -8 836 22 l 808 249 b 710 126 803 179 764 126 b 638 222 656 126 638 144 l 638 694 z m 369 615 b 438 563 414 615 432 578 l 438 249 b 347 126 438 168 388 126 b 244 326 313 126 244 129 b 369 615 244 447 279 615 z m 638 931 b 557 899 622 910 592 899 b 318 944 476 899 419 944 b 115 808 213 944 140 897 l 124 806 b 208 842 144 829 172 842 b 453 790 285 842 361 790 b 647 929 558 790 644 864 z "},"b":{"ha":617,"x_min":0,"x_max":0,"o":"m 64 207 b 294 -8 64 76 139 -8 b 599 372 543 -8 599 208 b 374 701 599 585 506 701 b 265 660 342 701 315 694 l 265 972 l 65 944 z m 456 360 b 335 126 456 254 432 126 b 265 208 294 126 265 149 l 265 575 b 338 600 279 592 315 600 b 456 360 410 600 456 508 z "},"\\":{"ha":731,"x_min":0,"x_max":0,"o":"m 610 -347 l 710 -347 l 119 1042 l 19 1042 z "},"|":{"ha":326,"x_min":0,"x_max":0,"o":"m 228 1043 l 99 1043 l 99 -347 l 228 -347 z "},"{":{"ha":396,"x_min":0,"x_max":0,"o":"m 363 -251 b 301 -257 340 -254 322 -257 b 199 -139 217 -257 199 -214 b 258 243 199 0 258 150 b 218 353 258 289 244 322 b 258 463 244 383 258 417 b 199 844 258 556 199 706 b 301 963 199 919 217 963 b 363 957 322 963 340 960 l 363 1032 b 281 1043 335 1039 313 1043 b 107 872 146 1043 107 968 b 165 489 107 754 165 594 b 79 388 165 429 146 388 b 35 392 67 388 51 389 l 35 314 b 79 318 51 317 67 318 b 165 217 146 318 165 276 b 107 -167 165 111 107 -49 b 281 -337 107 -262 146 -337 b 363 -326 313 -337 335 -333 z "},"}":{"ha":396,"x_min":0,"x_max":0,"o":"m 33 -326 b 115 -337 61 -333 83 -337 b 289 -167 250 -337 289 -262 b 231 217 289 -49 231 111 b 317 318 231 276 250 318 b 361 314 329 318 344 317 l 361 392 b 317 388 344 389 329 388 b 231 489 250 388 231 429 b 289 872 231 594 289 754 b 115 1043 289 968 250 1043 b 33 1032 83 1043 61 1039 l 33 957 b 94 963 56 960 74 963 b 197 844 179 963 197 919 b 138 463 197 706 138 556 b 178 353 138 417 151 383 b 138 243 151 322 138 289 b 197 -139 138 150 197 0 b 94 -257 197 -214 179 -257 b 33 -251 74 -257 56 -254 z "},"[":{"ha":411,"x_min":0,"x_max":0,"o":"m 382 -261 l 228 -261 l 228 956 l 381 956 l 381 1042 l 99 1042 l 99 -347 l 382 -347 z "},"]":{"ha":411,"x_min":0,"x_max":0,"o":"m 29 956 l 183 956 l 183 -261 l 29 -261 l 29 -347 l 313 -347 l 313 1042 l 29 1042 z "},"˘":{"ha":599,"x_min":0,"x_max":0,"o":"m 286 976 b 142 851 286 893 214 851 b -3 976 69 851 -3 893 l -112 976 b 140 789 -112 851 14 789 b 392 976 267 789 392 851 z "},"¦":{"ha":326,"x_min":0,"x_max":0,"o":"m 99 308 l 99 -347 l 228 -347 l 228 308 z m 228 418 l 228 1044 l 99 1044 l 99 418 z "},"•":{"ha":385,"x_min":0,"x_max":0,"o":"m 58 371 b 192 238 58 297 118 238 b 326 371 265 238 326 297 b 192 506 326 444 265 506 b 58 371 118 506 58 444 z "},"c":{"ha":533,"x_min":0,"x_max":0,"o":"m 400 479 b 457 463 419 468 443 463 b 511 546 490 463 511 497 b 328 701 511 611 472 701 b 43 311 96 701 43 468 b 315 -8 43 81 158 -8 b 646 249 504 -8 594 121 l 599 249 b 383 108 546 169 493 108 b 240 324 290 108 240 151 b 347 628 240 461 272 628 b 404 521 381 628 404 596 b 400 479 404 503 403 494 z "},"ć":{"ha":533,"x_min":0,"x_max":0,"o":"m 400 479 b 457 463 419 468 443 463 b 511 546 490 463 511 497 b 328 701 511 611 472 701 b 43 311 96 701 43 468 b 315 -8 43 81 158 -8 b 646 249 504 -8 594 121 l 599 249 b 383 108 546 169 493 108 b 240 324 290 108 240 151 b 347 628 240 461 272 628 b 404 521 381 628 404 596 b 400 479 404 503 403 494 z m 292 779 l 396 779 l 508 1042 l 363 1042 z "},"ˇ":{"ha":408,"x_min":0,"x_max":0,"o":"m -82 1042 l 57 779 l 86 779 l 325 1042 l 264 1042 l 69 931 l -37 1042 z "},"č":{"ha":533,"x_min":0,"x_max":0,"o":"m 400 479 b 457 463 419 468 443 463 b 511 546 490 463 511 497 b 328 701 511 611 472 701 b 43 311 96 701 43 468 b 315 -8 43 81 158 -8 b 646 249 504 -8 594 121 l 599 249 b 383 108 546 169 493 108 b 240 324 290 108 240 151 b 347 628 240 461 272 628 b 404 521 381 628 404 596 b 400 479 404 503 403 494 z m 183 1042 l 322 779 l 351 779 l 590 1042 l 529 1042 l 335 931 l 228 1042 z "},"ç":{"ha":533,"x_min":0,"x_max":0,"o":"m 400 479 b 457 463 419 468 443 463 b 511 546 490 463 511 497 b 328 701 511 611 472 701 b 43 311 96 701 43 468 b 303 -8 43 86 151 -3 l 310 40 l 365 8 l 363 -6 b 646 249 519 14 599 132 l 599 249 b 383 108 546 169 493 108 b 240 324 290 108 240 151 b 347 628 240 461 272 628 b 404 521 381 628 404 596 b 400 479 404 503 403 494 z m 522 -178 b 418 -81 522 -115 488 -81 b 347 -92 397 -81 374 -85 l 363 -6 b 315 -8 347 -7 332 -8 l 303 -8 l 281 -165 b 349 -149 293 -157 313 -149 b 415 -211 394 -149 415 -181 b 385 -257 415 -235 404 -257 b 274 -219 346 -257 331 -219 b 228 -264 247 -219 236 -242 b 385 -303 272 -285 314 -303 b 522 -178 456 -303 522 -258 z "},"ĉ":{"ha":533,"x_min":0,"x_max":0,"o":"m 400 479 b 457 463 419 468 443 463 b 511 546 490 463 511 497 b 328 701 511 611 472 701 b 43 311 96 701 43 468 b 315 -8 43 81 158 -8 b 646 249 504 -8 594 121 l 599 249 b 383 108 546 169 493 108 b 240 324 290 108 240 151 b 347 628 240 461 272 628 b 404 521 381 628 404 596 b 400 479 404 503 403 494 z m 542 779 l 403 1042 l 374 1042 l 135 779 l 196 779 l 390 890 l 497 779 z "},"¸":{"ha":315,"x_min":0,"x_max":0,"o":"m 350 -178 b 246 -81 350 -115 315 -81 b 175 -92 225 -81 201 -85 l 193 8 l 138 40 l 108 -165 b 176 -149 121 -157 140 -149 b 243 -211 222 -149 243 -181 b 213 -257 243 -235 232 -257 b 101 -219 174 -257 158 -219 b 56 -264 75 -219 64 -242 b 213 -303 100 -285 142 -303 b 350 -178 283 -303 350 -258 z "},"¢":{"ha":544,"x_min":0,"x_max":0,"o":"m 292 -37 l 346 -37 l 346 203 b 506 367 450 214 499 250 b 346 288 464 301 419 289 l 346 774 b 418 686 396 769 418 728 b 407 632 418 668 414 649 b 489 704 479 635 489 672 b 346 828 489 785 424 822 l 346 997 l 292 997 l 292 828 b 39 500 132 815 39 693 b 292 201 39 283 157 208 z m 186 507 b 292 763 186 619 224 728 l 292 294 b 186 507 211 322 186 415 z "},"ˆ":{"ha":407,"x_min":0,"x_max":0,"o":"m 242 779 l 103 1042 l 74 1042 l -165 779 l -104 779 l 90 890 l 197 779 z "},":":{"ha":376,"x_min":0,"x_max":0,"o":"m 78 188 b 188 78 78 126 126 78 b 299 188 249 78 299 126 b 188 299 299 249 249 299 b 78 188 126 299 78 249 z m 78 521 b 188 411 78 460 126 411 b 299 521 249 411 299 460 b 188 632 299 582 249 632 b 78 521 126 632 78 582 z "},",":{"ha":325,"x_min":0,"x_max":0,"o":"m 54 124 b 158 -28 54 31 158 21 b 121 -142 158 -68 121 -101 b 140 -175 121 -153 124 -165 b 267 78 222 -108 267 0 b 153 221 267 157 226 221 b 54 124 100 221 54 175 z "},"©":{"ha":769,"x_min":0,"x_max":0,"o":"m 189 467 b 392 253 189 351 279 253 b 563 347 460 253 524 289 l 501 388 b 397 325 481 349 440 325 b 265 474 324 325 265 390 b 392 599 265 557 329 599 b 501 515 442 599 492 571 l 567 540 b 396 672 539 631 468 672 b 189 467 294 672 189 592 z m 385 106 b 721 461 568 106 721 263 b 385 815 721 660 568 815 b 49 460 201 815 49 658 b 385 106 49 263 201 106 z m 113 460 b 388 756 113 626 238 756 b 661 460 536 756 661 626 b 388 164 661 293 536 164 b 113 460 238 164 113 293 z "},"¤":{"ha":636,"x_min":0,"x_max":0,"o":"m 63 683 l 142 604 b 101 479 117 569 101 526 b 142 356 101 433 117 390 l 64 278 l 114 228 l 192 306 b 319 264 228 279 272 264 b 444 304 367 264 410 279 l 521 228 l 571 278 l 494 354 b 536 481 521 390 536 433 b 494 608 536 528 521 572 l 571 685 l 521 735 l 443 657 b 319 697 408 682 365 697 b 193 656 272 697 229 682 l 115 733 z m 319 619 b 458 481 396 619 458 557 b 319 342 458 404 396 342 b 181 481 243 342 181 404 b 319 619 181 557 243 619 z "},"d":{"ha":731,"x_min":0,"x_max":0,"o":"m 438 944 l 438 628 b 307 701 414 693 353 701 b 42 314 114 701 42 483 b 286 -8 42 72 169 -8 b 465 119 385 -8 436 56 b 631 -8 485 40 533 -8 b 867 249 706 -8 836 22 l 808 249 b 710 126 803 179 764 126 b 638 222 656 126 638 144 l 638 972 z m 438 249 b 347 126 438 168 388 126 b 244 326 313 126 244 129 b 369 615 244 447 279 615 b 438 561 415 615 433 576 z "},"†":{"ha":571,"x_min":0,"x_max":0,"o":"m 332 1042 l 232 1042 l 232 594 l 29 594 l 29 439 l 232 439 l 232 -347 l 332 -347 l 332 439 l 542 439 l 542 594 l 332 594 z "},"‡":{"ha":596,"x_min":0,"x_max":0,"o":"m 344 1042 l 244 1042 l 244 594 l 42 594 l 42 439 l 244 439 l 244 296 l 42 296 l 42 140 l 244 140 l 244 -347 l 344 -347 l 344 140 l 554 140 l 554 296 l 344 296 l 344 439 l 554 439 l 554 594 l 344 594 z "},"đ":{"ha":731,"x_min":0,"x_max":0,"o":"m 438 944 l 438 863 l 393 863 l 393 807 l 438 807 l 438 628 b 307 701 414 693 353 701 b 42 314 114 701 42 483 b 286 -8 42 72 169 -8 b 465 119 385 -8 436 56 b 631 -8 485 40 533 -8 b 867 249 706 -8 836 22 l 808 249 b 710 126 803 179 764 126 b 638 222 656 126 638 144 l 638 807 l 725 807 l 725 863 l 638 863 l 638 972 z m 369 615 b 438 563 414 615 432 578 l 438 249 b 347 126 438 168 388 126 b 244 326 313 126 244 129 b 369 615 244 447 279 615 z "},"°":{"ha":443,"x_min":0,"x_max":0,"o":"m 231 975 b 58 751 118 975 58 876 b 235 519 58 578 126 519 b 385 756 342 519 385 651 b 231 975 385 864 354 975 z m 158 763 b 236 926 158 869 203 926 b 303 739 265 926 303 888 b 228 571 303 649 279 571 b 158 763 158 571 158 707 z "},"¨":{"ha":544,"x_min":0,"x_max":0,"o":"m 78 881 b 163 796 78 833 115 796 b 247 881 208 796 247 833 b 163 965 247 926 208 965 b 78 881 115 965 78 926 z m 328 881 b 413 796 328 833 365 796 b 497 881 458 796 497 833 b 413 965 497 926 458 965 b 328 881 365 965 328 926 z "},"÷":{"ha":575,"x_min":0,"x_max":0,"o":"m 208 110 b 318 0 208 49 257 0 b 429 110 379 0 429 49 b 318 221 429 171 379 221 b 208 110 257 221 208 171 z m 208 575 b 318 465 208 514 257 465 b 429 575 379 465 429 514 b 318 686 429 636 379 686 b 208 575 257 686 208 636 z m 528 396 l 42 396 l 42 286 l 528 286 z "},"$":{"ha":535,"x_min":0,"x_max":0,"o":"m 465 703 b 275 850 465 825 351 847 l 275 997 l 225 997 l 225 847 b 56 688 138 835 56 771 b 225 485 56 588 144 540 l 225 210 b 154 322 189 228 154 265 b 196 393 154 358 168 388 b 131 428 193 411 169 428 b 49 326 82 428 49 389 b 225 151 49 211 129 163 l 225 -37 l 275 -37 l 275 149 b 493 325 407 150 493 211 b 275 582 493 475 367 524 l 275 800 b 376 711 342 799 376 754 b 354 657 376 692 371 667 b 414 625 375 635 392 625 b 465 703 449 625 465 657 z m 353 299 b 275 200 353 247 335 203 l 275 449 b 353 299 319 411 353 365 z m 182 715 b 225 789 182 742 196 772 l 225 621 b 182 715 199 646 182 675 z "},"ı":{"ha":371,"x_min":0,"x_max":0,"o":"m 65 694 l 65 207 b 258 -8 65 78 115 -8 b 494 249 333 -8 464 22 l 436 249 b 338 126 431 179 392 126 b 265 222 283 126 265 144 l 265 694 z "},"e":{"ha":533,"x_min":0,"x_max":0,"o":"m 382 108 b 246 281 282 108 249 157 b 518 540 383 288 518 375 b 338 701 518 569 514 701 b 43 310 106 701 43 471 b 317 -8 43 83 157 -8 b 646 249 506 -8 594 121 l 599 249 b 382 108 546 169 494 108 z m 411 539 b 246 347 411 436 339 354 b 358 628 253 497 296 628 b 411 539 385 628 411 603 z "},"é":{"ha":533,"x_min":0,"x_max":0,"o":"m 382 108 b 246 281 282 108 249 157 b 518 540 383 288 518 375 b 338 701 518 569 514 701 b 43 310 106 701 43 471 b 317 -8 43 83 157 -8 b 646 249 506 -8 594 121 l 599 249 b 382 108 546 169 494 108 z m 267 779 l 371 779 l 483 1042 l 338 1042 z m 411 539 b 246 347 411 436 339 354 b 358 628 253 497 296 628 b 411 539 385 628 411 603 z "},"ê":{"ha":533,"x_min":0,"x_max":0,"o":"m 382 108 b 246 281 282 108 249 157 b 518 540 383 288 518 375 b 338 701 518 569 514 701 b 43 310 106 701 43 471 b 317 -8 43 83 157 -8 b 646 249 506 -8 594 121 l 599 249 b 382 108 546 169 494 108 z m 540 779 l 401 1042 l 372 1042 l 133 779 l 194 779 l 389 890 l 496 779 z m 411 539 b 246 347 411 436 339 354 b 358 628 253 497 296 628 b 411 539 385 628 411 603 z "},"ë":{"ha":533,"x_min":0,"x_max":0,"o":"m 382 108 b 246 281 282 108 249 157 b 518 540 383 288 518 375 b 338 701 518 569 514 701 b 43 310 106 701 43 471 b 317 -8 43 83 157 -8 b 646 249 506 -8 594 121 l 599 249 b 382 108 546 169 494 108 z m 411 539 b 246 347 411 436 339 354 b 358 628 253 497 296 628 b 411 539 385 628 411 603 z m 144 881 b 229 796 144 833 182 796 b 314 881 275 796 314 833 b 229 965 314 926 275 965 b 144 881 182 965 144 926 z m 394 881 b 479 796 394 833 432 796 b 564 881 525 796 564 833 b 479 965 564 926 525 965 b 394 881 432 965 394 926 z "},"è":{"ha":533,"x_min":0,"x_max":0,"o":"m 382 108 b 246 281 282 108 249 157 b 518 540 383 288 518 375 b 338 701 518 569 514 701 b 43 310 106 701 43 471 b 317 -8 43 83 157 -8 b 646 249 506 -8 594 121 l 599 249 b 382 108 546 169 494 108 z m 279 779 l 383 779 l 288 1042 l 142 1042 z m 411 539 b 246 347 411 436 339 354 b 358 628 253 497 296 628 b 411 539 385 628 411 603 z "},"…":{"ha":996,"x_min":0,"x_max":0,"o":"m 54 104 b 164 -6 54 43 103 -6 b 275 104 225 -6 275 43 b 164 215 275 165 225 215 b 54 104 103 215 54 165 z m 381 104 b 490 -6 381 43 429 -6 b 601 104 551 -6 601 43 b 490 215 601 165 551 215 b 381 104 429 215 381 165 z m 721 104 b 831 -6 721 43 769 -6 b 942 104 892 -6 942 43 b 831 215 942 165 892 215 b 721 104 769 215 721 165 z "},"—":{"ha":651,"x_min":0,"x_max":0,"o":"m 568 418 l 82 418 l 82 308 l 569 308 z "},"–":{"ha":526,"x_min":0,"x_max":0,"o":"m 443 418 l 82 418 l 82 308 l 444 308 z "},"ę":{"ha":532,"x_min":0,"x_max":0,"o":"m 421 -85 b 649 249 421 39 564 24 l 601 249 b 386 108 550 169 496 108 b 253 281 304 108 272 139 b 515 532 399 289 515 394 b 328 707 515 582 513 707 b 46 317 106 707 46 472 b 322 -8 46 81 161 -8 b 379 -4 343 -8 363 -7 b 317 -139 338 -47 317 -97 b 451 -268 317 -194 364 -268 b 585 -182 524 -268 557 -214 b 579 -139 582 -165 581 -156 b 494 -186 554 -157 528 -186 b 421 -85 449 -186 421 -135 z m 407 539 b 249 347 407 440 340 353 b 356 633 249 485 283 633 b 407 539 382 633 407 611 z "},"=":{"ha":685,"x_min":0,"x_max":0,"o":"m 597 594 l 88 594 l 88 439 l 597 439 z m 597 296 l 88 296 l 88 140 l 597 140 z "},"ð":{"ha":747,"x_min":0,"x_max":0,"o":"m 654 576 b 590 822 654 683 629 763 l 667 835 l 654 892 l 550 874 b 410 972 510 917 460 947 l 347 972 b 431 853 389 928 414 892 l 335 836 l 343 782 l 446 799 b 454 674 451 764 454 724 l 454 640 b 324 701 442 675 400 701 b 58 314 131 701 58 483 b 303 -8 58 72 186 -8 b 482 119 401 -8 453 56 b 644 0 510 42 569 0 b 871 249 719 0 839 22 l 813 249 b 725 126 806 179 779 126 b 654 222 667 126 654 150 z m 386 615 b 454 574 422 615 444 590 l 454 249 b 364 126 454 168 404 126 b 261 326 329 126 261 129 b 386 615 261 447 296 615 z "},"!":{"ha":369,"x_min":0,"x_max":0,"o":"m 244 321 l 286 972 l 86 972 l 126 321 z m 74 110 b 183 0 74 49 122 0 b 294 110 244 0 294 49 b 183 221 294 171 244 221 b 74 110 122 221 74 171 z "},"¡":{"ha":354,"x_min":0,"x_max":0,"o":"m 118 307 l 76 -344 l 276 -344 l 236 307 z m 289 518 b 179 628 289 579 240 628 b 68 518 118 628 68 579 b 179 407 68 457 118 407 b 289 518 240 407 289 457 z "},"f":{"ha":371,"x_min":0,"x_max":0,"o":"m 472 833 b 263 1040 463 947 392 1040 b 65 804 179 1040 65 1001 l 65 11 b -133 -164 -49 -26 -133 -64 b 75 -347 -133 -272 -36 -347 b 265 -111 154 -347 265 -310 l 265 639 l 367 639 l 367 694 l 265 694 l 265 804 b 343 918 265 897 307 918 b 407 833 388 918 397 886 z m -60 -154 b 67 -35 -60 -94 4 -57 l 67 -115 b 10 -224 67 -197 39 -224 b -60 -154 -17 -224 -60 -201 z "},"ﬀ":{"ha":710,"x_min":0,"x_max":0,"o":"m 599 1040 b 433 951 543 1040 472 1024 b 263 1040 399 1004 342 1040 b 65 804 179 1040 65 1001 l 65 11 b -133 -164 -49 -26 -133 -64 b 75 -347 -133 -272 -36 -347 b 233 -260 128 -347 194 -331 b 407 -347 265 -312 324 -347 b 604 -111 493 -347 604 -310 l 604 639 l 743 639 l 743 694 l 604 694 l 604 808 b 679 918 604 903 647 918 b 744 833 726 918 735 885 l 810 833 b 599 1040 799 956 724 1040 z m 265 639 l 367 639 l 367 694 l 265 694 l 265 804 b 338 917 265 878 301 917 b 404 818 369 917 404 885 l 404 76 l 265 51 z m 331 -224 b 257 -194 304 -224 274 -217 b 265 -111 263 -171 265 -143 l 265 15 l 404 42 l 404 -115 b 331 -224 404 -207 375 -224 z m -60 -154 b 67 -35 -60 -94 4 -57 l 67 -115 b 10 -224 67 -197 39 -224 b -60 -154 -17 -224 -60 -201 z "},"ﬃ":{"ha":1061,"x_min":0,"x_max":0,"o":"m 586 694 l 586 808 b 700 965 586 888 610 965 b 789 910 744 965 779 946 b 778 911 788 911 781 911 b 743 854 754 911 743 885 b 846 768 743 789 797 768 b 933 861 892 768 933 788 b 657 1040 933 1008 771 1040 b 453 969 579 1040 504 1026 b 268 1040 404 1018 340 1040 b 65 808 175 1040 65 1004 l 65 11 b -135 -165 -44 -25 -135 -62 b 74 -347 -135 -274 -36 -347 b 226 -274 122 -347 185 -332 b 392 -347 261 -319 318 -347 b 588 -115 483 -347 588 -304 l 588 639 l 756 639 l 756 207 b 949 -8 756 78 806 -8 b 1185 249 1024 -8 1154 22 l 1126 249 b 1028 126 1121 179 1082 126 b 956 222 974 126 956 144 l 956 694 z m 268 639 l 386 639 l 386 72 l 268 50 z m 311 -243 b 258 -201 289 -243 264 -233 b 268 -111 264 -175 268 -146 l 268 11 l 388 38 l 388 -115 b 311 -243 388 -207 361 -243 z m 386 694 l 268 694 l 268 815 b 356 939 268 872 282 939 b 418 915 382 939 401 931 b 386 742 397 872 386 817 z m -53 -154 b 75 -35 -53 -94 11 -57 l 75 -115 b 15 -224 75 -197 43 -224 b -53 -154 -11 -224 -53 -201 z "},"ﬄ":{"ha":1082,"x_min":0,"x_max":0,"o":"m 65 -347 b 226 -275 121 -347 186 -332 b 394 -347 263 -319 319 -347 b 589 -111 482 -347 589 -303 l 589 639 l 718 639 l 718 694 l 588 694 l 588 847 b 658 953 588 936 626 953 b 778 931 676 953 738 946 l 778 249 b 969 -8 778 67 867 -8 b 1207 249 1044 -8 1176 22 l 1149 249 b 1050 126 1143 179 1104 126 b 976 222 992 126 976 150 l 976 944 b 589 1040 842 994 714 1040 b 439 982 538 1040 479 1028 b 267 1040 393 1021 336 1040 b 65 808 175 1040 65 1004 l 65 11 b -135 -165 -44 -25 -135 -62 b 65 -347 -135 -275 -31 -347 z m 269 639 l 386 639 l 386 72 l 269 51 z m 260 -200 b 269 -111 267 -175 269 -144 l 269 11 l 388 38 l 388 -115 b 319 -243 388 -208 357 -243 b 260 -200 306 -243 274 -236 z m 386 694 l 265 694 l 265 815 b 357 939 265 874 282 939 b 404 925 376 939 392 933 b 386 804 393 894 386 854 z m -53 -158 b 75 -35 -53 -96 1 -61 l 75 -115 b 15 -224 75 -197 43 -224 b -53 -158 -17 -224 -53 -194 z "},"ﬁ":{"ha":739,"x_min":0,"x_max":0,"o":"m -62 -157 b 65 -35 -62 -103 -12 -61 l 65 -115 b 8 -224 65 -194 36 -224 b -62 -157 -10 -224 -62 -212 z m 421 858 b 518 768 421 800 469 768 b 613 860 565 768 613 799 b 350 1040 613 1018 467 1040 b 65 742 224 1040 65 1000 l 65 11 b -136 -167 -44 -24 -136 -62 b 72 -347 -136 -269 -44 -347 b 268 -111 161 -347 268 -303 l 268 639 l 379 639 l 379 694 l 267 694 l 267 808 b 381 965 267 888 290 965 b 468 910 425 965 460 946 b 421 858 435 904 421 882 z m 433 694 l 433 207 b 626 -8 433 78 483 -8 b 863 249 701 -8 832 22 l 804 249 b 706 126 799 179 760 126 b 633 222 651 126 633 144 l 633 694 z "},"ﬂ":{"ha":758,"x_min":0,"x_max":0,"o":"m 653 944 b 265 1040 518 994 390 1040 b 65 808 175 1040 65 1004 l 65 11 b -135 -165 -44 -25 -135 -62 b 65 -347 -135 -275 -31 -347 b 265 -115 157 -347 265 -311 l 265 639 l 394 639 l 394 694 l 264 694 l 264 847 b 335 953 264 936 303 953 b 454 931 353 953 414 946 l 454 207 b 647 -8 454 78 504 -8 b 883 249 722 -8 853 22 l 825 249 b 726 126 819 179 781 126 b 654 222 672 126 654 144 z m -61 -158 b 67 -35 -61 -96 -7 -61 l 67 -115 b 7 -224 67 -197 35 -224 b -61 -158 -25 -224 -61 -194 z "},"ƒ":{"ha":421,"x_min":0,"x_max":0,"o":"m 318 639 l 421 639 l 421 694 l 318 694 l 318 804 b 396 918 318 897 360 918 b 460 833 440 918 460 886 l 525 833 b 333 1040 525 976 476 1040 b 118 804 229 1040 118 1007 l 118 694 l 35 694 l 35 639 l 118 639 l 118 11 b -81 -164 4 -26 -81 -64 b 128 -347 -81 -272 17 -347 b 318 -111 207 -347 318 -310 z m -7 -153 b 118 -35 -7 -99 47 -60 l 118 -115 b 61 -224 118 -197 90 -224 b -7 -153 35 -224 -7 -201 z "},"g":{"ha":704,"x_min":0,"x_max":0,"o":"m 436 694 l 436 632 b 315 701 413 694 353 701 b 38 326 107 701 38 492 b 279 19 38 103 164 19 b 436 111 358 19 406 60 l 436 -6 b 250 -190 344 -36 250 -89 b 443 -347 250 -287 336 -347 b 636 -111 528 -347 636 -310 l 636 -12 b 828 249 718 14 811 65 l 769 249 b 636 50 756 126 714 81 l 636 694 z m 369 615 b 436 567 410 615 431 585 l 436 257 b 332 154 429 199 392 154 b 240 333 311 154 240 160 b 369 615 240 460 278 615 z m 324 -179 b 436 -75 324 -135 372 -101 l 436 -115 b 379 -239 436 -197 413 -239 b 324 -179 354 -239 324 -214 z "},"ğ":{"ha":704,"x_min":0,"x_max":0,"o":"m 436 694 l 436 632 b 315 701 413 694 353 701 b 38 326 107 701 38 492 b 279 19 38 103 164 19 b 436 111 358 19 406 60 l 436 -6 b 250 -190 344 -36 250 -89 b 443 -347 250 -287 336 -347 b 636 -111 528 -347 636 -310 l 636 -12 b 828 249 718 14 811 65 l 769 249 b 636 50 756 126 714 81 l 636 694 z m 369 615 b 436 567 410 615 431 585 l 436 257 b 332 154 429 199 392 154 b 240 333 311 154 240 160 b 369 615 240 460 278 615 z m 508 976 b 364 851 508 893 436 851 b 219 976 292 851 219 893 l 110 976 b 363 789 110 851 236 789 b 614 976 489 789 614 851 z m 324 -179 b 436 -75 324 -135 372 -101 l 436 -115 b 379 -239 436 -197 413 -239 b 324 -179 354 -239 324 -214 z "},"ß":{"ha":625,"x_min":0,"x_max":0,"o":"m 274 736 b 350 850 274 831 315 850 b 425 760 383 850 425 831 b 332 626 425 683 376 649 l 325 546 b 474 313 438 521 474 446 b 371 85 474 193 444 85 l 371 3 b 414 0 386 1 403 0 b 618 308 501 0 618 101 b 419 593 618 463 553 551 b 517 772 481 626 517 690 b 285 972 517 903 426 972 b 74 736 186 972 74 939 l 74 -347 l 274 -297 z "},"`":{"ha":279,"x_min":0,"x_max":0,"o":"m -50 779 l 54 779 l -42 1042 l -187 1042 z "},">":{"ha":503,"x_min":0,"x_max":0,"o":"m 82 519 l 386 353 l 82 219 l 79 140 l 464 313 l 464 388 l 78 596 z "},"«":{"ha":714,"x_min":0,"x_max":0,"o":"m 272 624 l 29 353 l 333 96 l 376 157 l 144 351 l 343 561 z m 561 624 l 318 353 l 622 96 l 665 157 l 433 351 l 632 561 z "},"»":{"ha":718,"x_min":0,"x_max":0,"o":"m 443 96 l 686 367 l 382 624 l 339 563 l 571 368 l 372 158 z m 154 96 l 397 367 l 93 624 l 50 563 l 282 368 l 83 158 z "},"‹":{"ha":425,"x_min":0,"x_max":0,"o":"m 272 624 l 29 353 l 333 96 l 376 157 l 144 351 l 343 561 z "},"›":{"ha":429,"x_min":0,"x_max":0,"o":"m 154 96 l 397 367 l 93 624 l 50 563 l 282 368 l 83 158 z "},"h":{"ha":701,"x_min":0,"x_max":0,"o":"m 418 421 b 415 251 418 383 415 285 b 618 -8 415 94 475 -8 b 825 249 700 -8 796 25 l 767 249 b 675 126 751 178 739 126 b 603 246 618 126 603 167 b 608 444 603 293 608 396 b 414 700 608 639 519 700 b 265 622 367 700 308 688 l 265 972 l 65 944 l 65 0 l 265 0 l 265 446 b 347 574 271 510 292 574 b 418 421 393 574 418 531 z "},"˝":{"ha":606,"x_min":0,"x_max":0,"o":"m 1 779 l 92 779 l 204 1042 l 72 1042 z m 182 779 l 272 779 l 385 1042 l 253 1042 z "},"-":{"ha":443,"x_min":0,"x_max":0,"o":"m 361 418 l 82 418 l 82 308 l 361 308 z "},"i":{"ha":371,"x_min":0,"x_max":0,"o":"m 65 694 l 65 207 b 258 -8 65 78 115 -8 b 494 249 333 -8 464 22 l 436 249 b 338 126 431 179 392 126 b 265 222 283 126 265 144 l 265 694 z m 50 879 b 160 769 50 818 99 769 b 271 879 221 769 271 818 b 160 990 271 940 221 990 b 50 879 99 990 50 940 z "},"í":{"ha":371,"x_min":0,"x_max":0,"o":"m 65 694 l 65 207 b 258 -8 65 78 115 -8 b 494 249 333 -8 464 22 l 436 249 b 338 126 431 179 392 126 b 265 222 283 126 265 144 l 265 694 z m 119 779 l 224 779 l 336 1042 l 190 1042 z "},"î":{"ha":371,"x_min":0,"x_max":0,"o":"m 65 694 l 65 207 b 258 -8 65 78 115 -8 b 494 249 333 -8 464 22 l 436 249 b 338 126 431 179 392 126 b 265 222 283 126 265 144 l 265 694 z m 368 779 l 229 1042 l 200 1042 l -39 779 l 22 779 l 217 890 l 324 779 z "},"ï":{"ha":371,"x_min":0,"x_max":0,"o":"m 65 694 l 65 207 b 258 -8 65 78 115 -8 b 494 249 333 -8 464 22 l 436 249 b 338 126 431 179 392 126 b 265 222 283 126 265 144 l 265 694 z m -36 881 b 49 796 -36 833 1 796 b 133 881 94 796 133 833 b 49 965 133 926 94 965 b -36 881 1 965 -36 926 z m 214 881 b 299 796 214 833 251 796 b 383 881 344 796 383 833 b 299 965 383 926 344 965 b 214 881 251 965 214 926 z "},"ì":{"ha":371,"x_min":0,"x_max":0,"o":"m 65 694 l 65 207 b 258 -8 65 78 115 -8 b 494 249 333 -8 464 22 l 436 249 b 338 126 431 179 392 126 b 265 222 283 126 265 144 l 265 694 z m 121 779 l 225 779 l 129 1042 l -17 1042 z "},"ĳ":{"ha":704,"x_min":0,"x_max":0,"o":"m 436 694 l 436 -6 b 250 -190 344 -36 250 -89 b 443 -347 250 -287 336 -347 b 636 -111 529 -347 636 -308 l 636 -12 b 828 249 718 14 811 65 l 769 249 b 636 50 756 126 714 81 l 636 694 z m 65 694 l 65 207 b 258 -8 65 78 115 -8 b 382 107 310 -8 382 15 b 381 135 382 115 382 125 b 338 126 372 131 361 126 b 265 222 283 126 265 144 l 265 694 z m 50 879 b 160 769 50 818 99 769 b 271 879 221 769 271 818 b 160 990 271 940 221 990 b 50 879 99 990 50 940 z m 424 879 b 533 769 424 818 472 769 b 644 879 594 769 644 818 b 533 990 644 940 594 990 b 424 879 472 990 424 940 z m 324 -178 b 436 -75 324 -133 374 -101 l 436 -115 b 381 -239 436 -197 414 -239 b 324 -178 356 -239 324 -214 z "},"j":{"ha":333,"x_min":0,"x_max":0,"o":"m 65 694 l 65 -6 b -121 -190 -25 -36 -121 -89 b 72 -347 -121 -287 -35 -347 b 265 -111 158 -347 265 -308 l 265 -12 b 457 249 347 14 440 65 l 399 249 b 265 50 385 126 343 81 l 265 694 z m 53 879 b 163 769 53 818 101 769 b 274 879 224 769 274 818 b 163 990 274 940 224 990 b 53 879 101 990 53 940 z m -47 -178 b 65 -75 -47 -133 3 -101 l 65 -115 b 10 -239 65 -197 43 -239 b -47 -178 -15 -239 -47 -214 z "},"k":{"ha":719,"x_min":0,"x_max":0,"o":"m 489 694 l 265 483 l 265 972 l 65 944 l 65 0 l 265 0 l 265 310 b 365 393 279 356 308 393 b 436 286 425 393 436 351 b 433 183 436 253 433 206 b 633 -8 433 81 493 -8 b 843 249 724 -8 814 29 l 785 249 b 689 126 767 165 754 126 b 621 192 635 126 621 153 b 626 322 621 217 626 289 b 428 504 626 458 532 504 b 390 503 415 504 403 504 l 626 694 z "},"l":{"ha":371,"x_min":0,"x_max":0,"o":"m 65 944 l 65 207 b 258 -8 65 78 115 -8 b 494 249 333 -8 464 22 l 436 249 b 338 126 431 179 392 126 b 265 222 283 126 265 144 l 265 972 z "},"<":{"ha":497,"x_min":0,"x_max":0,"o":"m 417 596 l 35 388 l 35 331 l 418 140 l 418 219 l 121 353 l 419 519 z "},"¬":{"ha":647,"x_min":0,"x_max":0,"o":"m 561 418 l 57 418 l 57 308 l 407 308 l 407 71 l 561 71 z "},"ł":{"ha":371,"x_min":0,"x_max":0,"o":"m 65 944 l 65 489 l -19 426 l -3 346 l 65 396 l 65 207 b 258 -8 65 78 115 -8 b 494 249 333 -8 464 22 l 436 249 b 338 126 431 179 392 126 b 265 222 283 126 265 144 l 265 542 l 422 657 l 410 742 l 265 635 l 265 972 z "},"m":{"ha":1044,"x_min":0,"x_max":0,"o":"m 763 419 b 760 251 763 385 760 285 b 960 -8 760 94 821 -8 b 1168 249 1044 -8 1139 29 l 1110 249 b 1018 126 1094 178 1082 126 b 946 246 961 126 946 167 b 951 444 946 293 951 396 b 757 700 951 639 863 700 b 585 582 701 700 631 683 b 417 701 547 675 486 701 b 265 622 369 701 310 689 l 265 694 l 65 694 l 65 0 l 265 0 l 265 446 b 347 575 271 515 297 575 b 408 479 394 575 408 524 l 408 0 l 608 0 l 608 446 b 690 574 614 514 638 574 b 763 419 735 574 763 531 z "},"−":{"ha":650,"x_min":0,"x_max":0,"o":"m 568 418 l 82 418 l 82 308 l 568 308 z "},"µ":{"ha":701,"x_min":0,"x_max":0,"o":"m 410 694 l 410 249 b 322 126 410 179 372 126 b 265 222 286 126 265 153 l 265 694 l 65 694 l 65 -231 l 265 -181 l 265 -8 b 436 124 321 -6 393 17 b 601 -8 454 42 503 -8 b 839 249 678 -8 808 22 l 781 249 b 674 126 774 182 744 126 b 610 222 625 126 610 153 l 610 694 z "},"×":{"ha":618,"x_min":0,"x_max":0,"o":"m 60 493 l 219 360 l 60 228 l 131 139 l 310 286 l 489 139 l 558 229 l 399 360 l 558 492 l 489 582 l 310 433 l 131 582 z "},"n":{"ha":701,"x_min":0,"x_max":0,"o":"m 419 419 b 417 251 419 383 417 285 b 619 -8 417 94 476 -8 b 825 249 701 -8 796 25 l 767 249 b 671 126 751 178 735 126 b 603 246 614 126 603 167 b 608 444 603 293 608 396 b 414 700 608 639 519 700 b 265 622 367 700 308 688 l 265 694 l 65 694 l 65 0 l 265 0 l 265 446 b 347 574 271 510 292 574 b 419 419 393 574 419 531 z "},"ń":{"ha":701,"x_min":0,"x_max":0,"o":"m 419 419 b 417 251 419 383 417 285 b 619 -8 417 94 476 -8 b 825 249 701 -8 796 25 l 767 249 b 671 126 751 178 735 126 b 603 246 614 126 603 167 b 608 444 603 293 608 396 b 414 700 608 639 519 700 b 265 622 367 700 308 688 l 265 694 l 65 694 l 65 0 l 265 0 l 265 446 b 347 574 271 510 292 574 b 419 419 393 574 419 531 z m 318 779 l 422 779 l 535 1042 l 389 1042 z "},"ñ":{"ha":701,"x_min":0,"x_max":0,"o":"m 419 419 b 417 251 419 383 417 285 b 619 -8 417 94 476 -8 b 825 249 701 -8 796 25 l 767 249 b 671 126 751 178 735 126 b 603 246 614 126 603 167 b 608 444 603 293 608 396 b 414 700 608 639 519 700 b 265 622 367 700 308 688 l 265 694 l 65 694 l 65 0 l 265 0 l 265 446 b 347 574 271 510 292 574 b 419 419 393 574 419 531 z m 593 931 b 513 899 578 910 547 899 b 274 944 432 899 375 944 b 71 808 168 944 96 897 l 79 806 b 164 842 100 829 128 842 b 408 790 240 842 317 790 b 603 929 514 790 600 864 z "},"#":{"ha":774,"x_min":0,"x_max":0,"o":"m 467 -37 l 546 -37 l 546 154 l 719 154 l 719 296 l 546 296 l 546 453 l 719 453 l 719 594 l 546 594 l 546 997 l 467 997 l 467 594 l 300 594 l 300 997 l 221 997 l 221 594 l 56 594 l 56 453 l 221 453 l 221 296 l 56 296 l 56 154 l 221 154 l 221 -37 l 300 -37 l 300 154 l 467 154 z m 300 453 l 467 453 l 467 296 l 300 296 z "},"o":{"ha":610,"x_min":0,"x_max":0,"o":"m 339 701 b 42 306 99 701 42 464 b 301 -8 42 71 165 -8 b 572 376 501 -8 572 163 b 571 414 572 389 572 401 b 786 528 656 431 747 469 l 765 565 b 575 482 713 521 626 482 l 565 482 b 339 701 543 635 465 701 z m 340 122 b 246 319 299 122 246 153 b 360 618 246 449 278 618 b 433 543 381 618 414 606 b 399 478 413 536 399 517 b 453 408 399 446 407 418 l 453 388 b 340 122 453 236 419 122 z "},"ó":{"ha":610,"x_min":0,"x_max":0,"o":"m 339 701 b 42 306 99 701 42 464 b 301 -8 42 71 165 -8 b 572 376 501 -8 572 163 b 571 414 572 389 572 401 b 786 528 656 431 747 469 l 765 565 b 575 482 713 521 626 482 l 565 482 b 339 701 543 635 465 701 z m 340 122 b 246 319 299 122 246 153 b 360 618 246 449 278 618 b 433 543 381 618 414 606 b 399 478 413 536 399 517 b 453 408 399 446 407 418 l 453 388 b 340 122 453 236 419 122 z m 285 779 l 389 779 l 501 1042 l 356 1042 z "},"ô":{"ha":610,"x_min":0,"x_max":0,"o":"m 339 701 b 42 306 99 701 42 464 b 301 -8 42 71 165 -8 b 572 376 501 -8 572 163 b 571 414 572 389 572 401 b 786 528 656 431 747 469 l 765 565 b 575 482 713 521 626 482 l 565 482 b 339 701 543 635 465 701 z m 340 122 b 246 319 299 122 246 153 b 360 618 246 449 278 618 b 433 543 381 618 414 606 b 399 478 413 536 399 517 b 453 408 399 446 407 418 l 453 388 b 340 122 453 236 419 122 z m 528 779 l 389 1042 l 360 1042 l 121 779 l 182 779 l 376 890 l 483 779 z "},"ö":{"ha":610,"x_min":0,"x_max":0,"o":"m 339 701 b 42 306 99 701 42 464 b 301 -8 42 71 165 -8 b 572 376 501 -8 572 163 b 571 414 572 389 572 401 b 786 528 656 431 747 469 l 765 565 b 575 482 713 521 626 482 l 565 482 b 339 701 543 635 465 701 z m 340 122 b 246 319 299 122 246 153 b 360 618 246 449 278 618 b 433 543 381 618 414 606 b 399 478 413 536 399 517 b 453 408 399 446 407 418 l 453 388 b 340 122 453 236 419 122 z m 122 881 b 207 796 122 833 160 796 b 292 881 253 796 292 833 b 207 965 292 926 253 965 b 122 881 160 965 122 926 z m 372 881 b 457 796 372 833 410 796 b 542 881 503 796 542 833 b 457 965 542 926 503 965 b 372 881 410 965 372 926 z "},"œ":{"ha":928,"x_min":0,"x_max":0,"o":"m 325 708 b 44 357 168 708 44 599 b 325 -8 44 115 101 -8 b 514 126 400 -8 471 38 b 731 0 561 46 638 0 b 1063 283 910 0 1014 140 l 1000 283 b 806 100 974 181 874 100 b 657 279 746 100 668 131 b 917 524 774 296 917 379 b 703 707 917 644 839 707 b 515 590 611 707 551 658 b 325 708 482 657 425 708 z m 361 126 b 233 349 290 126 233 161 b 349 626 233 458 258 626 b 421 554 388 626 407 600 b 379 475 393 542 379 508 b 453 394 379 433 404 394 b 457 321 456 369 457 344 b 361 126 457 215 431 126 z m 833 528 b 656 346 833 439 768 347 b 765 633 660 467 692 633 b 833 528 821 633 833 554 z "},"˛":{"ha":404,"x_min":0,"x_max":0,"o":"m 168 7 b 94 -137 119 -39 94 -96 b 228 -268 94 -196 143 -268 b 363 -182 301 -268 340 -214 l 357 -139 b 272 -186 332 -158 306 -186 b 201 -97 226 -186 201 -136 b 265 7 201 -53 233 -7 z "},"ò":{"ha":610,"x_min":0,"x_max":0,"o":"m 339 701 b 42 306 99 701 42 464 b 301 -8 42 71 165 -8 b 572 376 501 -8 572 163 b 571 414 572 389 572 401 b 786 528 656 431 747 469 l 765 565 b 575 482 713 521 626 482 l 565 482 b 339 701 543 635 465 701 z m 340 122 b 246 319 299 122 246 153 b 360 618 246 449 278 618 b 433 543 381 618 414 606 b 399 478 413 536 399 517 b 453 408 399 446 407 418 l 453 388 b 340 122 453 236 419 122 z m 296 779 l 400 779 l 304 1042 l 158 1042 z "},"ő":{"ha":610,"x_min":0,"x_max":0,"o":"m 339 701 b 42 306 99 701 42 464 b 301 -8 42 71 165 -8 b 572 376 501 -8 572 163 b 571 414 572 389 572 401 b 786 528 656 431 747 469 l 765 565 b 575 482 713 521 626 482 l 565 482 b 339 701 543 635 465 701 z m 340 122 b 246 319 299 122 246 153 b 360 618 246 449 278 618 b 433 543 381 618 414 606 b 399 478 413 536 399 517 b 453 408 399 446 407 418 l 453 388 b 340 122 453 236 419 122 z m 226 779 l 317 779 l 429 1042 l 297 1042 z m 407 779 l 497 779 l 610 1042 l 478 1042 z "},"½":{"ha":956,"x_min":0,"x_max":0,"o":"m 656 1042 l 556 1042 l 194 -99 l 294 -99 z m 224 874 b 32 815 138 819 76 815 l 29 781 l 106 781 l 106 313 l 224 313 z m 646 106 b 893 429 692 207 893 260 b 725 568 893 499 860 568 b 565 461 618 568 565 525 b 619 390 565 428 581 390 b 679 417 639 390 663 399 b 647 467 653 425 647 449 b 711 526 647 508 676 526 b 776 440 767 526 776 481 b 565 53 776 257 565 194 b 576 4 565 28 572 17 b 658 19 608 18 628 19 b 838 -3 693 19 771 -3 b 917 71 890 -3 917 11 b 908 144 917 90 914 108 b 814 92 879 111 871 92 b 646 106 765 92 701 106 z "},"¼":{"ha":943,"x_min":0,"x_max":0,"o":"m 629 1042 l 529 1042 l 168 -99 l 268 -99 z m 742 208 l 742 1 l 860 1 l 860 208 l 901 208 l 907 263 l 860 263 l 860 564 l 742 549 l 742 263 l 613 263 b 686 463 635 325 686 383 b 578 564 686 536 631 564 b 597 476 585 549 597 533 b 542 208 597 382 550 278 z m 224 874 b 32 815 138 819 76 815 l 29 781 l 106 781 l 106 313 l 224 313 z "},"¹":{"ha":315,"x_min":0,"x_max":0,"o":"m 229 1040 b 38 982 143 986 82 982 l 35 947 l 111 947 l 111 479 l 229 479 z "},"ª":{"ha":493,"x_min":0,"x_max":0,"o":"m 396 1028 l 276 1028 l 276 1013 b 204 1035 260 1025 238 1035 b 56 828 97 1035 56 922 b 183 649 56 740 90 649 b 290 728 243 649 274 690 b 385 653 307 679 329 653 b 449 722 406 653 440 657 b 428 719 442 719 433 719 b 392 772 396 719 392 742 z m 236 988 b 276 975 246 988 261 983 l 276 778 b 224 711 267 743 249 711 b 163 833 201 711 163 736 b 236 988 163 904 188 988 z "},"º":{"ha":426,"x_min":0,"x_max":0,"o":"m 338 932 b 306 958 333 953 325 958 b 263 908 282 958 263 932 b 290 871 263 892 268 875 b 293 828 292 857 293 842 b 228 721 293 772 279 721 b 165 839 193 721 165 743 b 235 992 165 899 181 992 b 276 965 253 992 267 982 b 306 996 290 971 306 978 b 222 1035 306 1019 263 1035 b 57 840 131 1035 57 974 b 215 647 57 704 99 647 b 353 826 281 647 353 707 b 346 881 353 840 351 856 b 386 961 378 897 383 933 l 375 976 b 338 932 360 957 356 944 z "},"ø":{"ha":610,"x_min":0,"x_max":0,"o":"m 385 -143 l 385 0 b 572 350 499 33 572 164 b 568 426 572 376 571 403 b 779 579 667 457 753 522 l 735 579 b 557 496 699 549 625 503 b 383 696 532 610 475 678 l 383 840 l 313 840 l 313 700 b 42 310 100 689 42 463 b 313 -8 42 79 160 -4 l 313 -143 z m 350 122 b 246 322 297 122 246 143 b 358 618 246 447 283 618 b 432 553 383 618 413 607 b 392 494 410 551 392 526 b 451 411 392 447 411 417 b 453 381 451 401 453 392 b 350 122 453 238 411 122 z "},"õ":{"ha":610,"x_min":0,"x_max":0,"o":"m 339 701 b 42 306 99 701 42 464 b 301 -8 42 71 165 -8 b 572 376 501 -8 572 163 b 571 414 572 389 572 401 b 786 528 656 431 747 469 l 765 565 b 575 482 713 521 626 482 l 565 482 b 339 701 543 635 465 701 z m 340 122 b 246 319 299 122 246 153 b 360 618 246 449 278 618 b 433 543 381 618 414 606 b 399 478 413 536 399 517 b 453 408 399 446 407 418 l 453 388 b 340 122 453 236 419 122 z m 585 931 b 504 899 569 910 539 899 b 265 944 424 899 367 944 b 63 808 160 944 88 897 l 71 806 b 156 842 92 829 119 842 b 400 790 232 842 308 790 b 594 929 506 790 592 864 z "},"p":{"ha":650,"x_min":0,"x_max":0,"o":"m 65 746 l 65 -347 l 265 -297 l 265 40 b 394 -8 286 15 325 -8 b 649 363 592 -8 649 183 b 413 701 649 613 538 701 b 265 642 344 701 297 675 l 265 746 z m 328 113 b 265 144 294 113 275 129 l 265 532 b 349 601 281 578 315 601 b 456 382 374 601 456 588 b 328 113 456 256 425 113 z "},"¶":{"ha":719,"x_min":0,"x_max":0,"o":"m 439 947 b 494 792 471 921 494 878 l 494 476 b 439 471 481 472 463 471 z m 440 400 b 496 415 458 404 476 408 l 496 -112 l 628 -112 l 628 711 b 311 1040 628 954 474 1040 b 32 749 118 1040 32 894 b 311 399 32 590 133 429 l 311 -112 l 442 -112 z "},"(":{"ha":388,"x_min":0,"x_max":0,"o":"m 340 1042 b 53 347 150 940 53 633 b 340 -347 53 76 147 -175 l 376 -307 b 158 342 225 -137 158 94 b 371 986 158 615 235 911 z "},")":{"ha":389,"x_min":0,"x_max":0,"o":"m 47 -347 b 336 346 238 -246 336 60 b 49 1042 336 618 240 869 l 11 1001 b 229 353 160 835 229 603 b 18 -292 229 78 154 -217 z "},"%":{"ha":883,"x_min":0,"x_max":0,"o":"m 719 1042 l 619 1042 l 182 0 l 282 0 z m 208 975 b 36 751 96 975 36 876 b 213 519 36 578 104 519 b 363 756 319 519 363 651 b 208 975 363 864 332 975 z m 136 763 b 214 926 136 869 181 926 b 281 739 243 926 281 888 b 206 571 281 649 257 571 b 136 763 136 571 136 707 z m 694 456 b 522 232 582 456 522 357 b 699 0 522 58 590 0 b 849 236 806 0 849 132 b 694 456 849 344 818 456 z m 622 243 b 700 407 622 350 667 407 b 767 219 729 407 767 368 b 692 51 767 129 743 51 b 622 243 622 51 622 188 z "},".":{"ha":329,"x_min":0,"x_max":0,"o":"m 54 110 b 164 0 54 49 103 0 b 275 110 225 0 275 49 b 164 221 275 171 225 221 b 54 110 103 221 54 171 z "},"·":{"ha":385,"x_min":0,"x_max":0,"o":"m 58 371 b 192 238 58 297 118 238 b 326 371 265 238 326 297 b 192 506 326 444 265 506 b 58 371 118 506 58 444 z "},"‰":{"ha":1299,"x_min":0,"x_max":0,"o":"m 721 1042 l 621 1042 l 183 0 l 283 0 z m 210 975 b 38 751 97 975 38 876 b 214 519 38 578 106 519 b 364 756 321 519 364 651 b 210 975 364 864 333 975 z m 138 763 b 215 926 138 869 182 926 b 282 739 244 926 282 888 b 207 571 282 649 258 571 b 138 763 138 571 138 707 z m 696 456 b 524 232 583 456 524 357 b 700 0 524 58 592 0 b 850 236 807 0 850 132 b 696 456 850 344 819 456 z m 624 243 b 701 407 624 350 668 407 b 768 219 731 407 768 368 b 693 51 768 129 744 51 b 624 243 624 51 624 188 z m 1113 456 b 940 232 1000 456 940 357 b 1117 0 940 58 1008 0 b 1267 236 1224 0 1267 132 b 1113 456 1267 344 1236 456 z m 1040 243 b 1118 407 1040 350 1085 407 b 1185 219 1147 407 1185 368 b 1110 51 1185 129 1161 51 b 1040 243 1040 51 1040 188 z "},"+":{"ha":615,"x_min":0,"x_max":0,"o":"m 386 610 l 231 610 l 231 440 l 51 440 l 51 285 l 228 285 l 228 114 l 385 114 l 385 285 l 564 285 l 564 440 l 386 440 z "},"±":{"ha":664,"x_min":0,"x_max":0,"o":"m 413 754 l 256 754 l 256 585 l 76 585 l 76 429 l 256 429 l 256 258 l 410 258 l 410 429 l 589 429 l 589 585 l 411 585 z m 586 204 l 76 204 l 76 94 l 586 94 z "},"q":{"ha":675,"x_min":0,"x_max":0,"o":"m 436 694 l 436 632 b 307 701 413 694 353 701 b 42 314 114 701 42 483 b 286 -8 42 72 169 -8 b 436 68 358 -8 404 25 l 436 -347 l 636 -297 l 636 694 z m 369 615 b 436 567 410 615 429 583 l 436 225 b 347 126 428 160 383 126 b 244 326 313 126 244 129 b 369 615 244 447 279 615 z "},"?":{"ha":583,"x_min":0,"x_max":0,"o":"m 549 761 b 294 972 549 838 522 972 b 33 779 92 972 33 867 b 156 632 33 683 92 632 b 244 690 194 632 229 651 b 179 792 201 706 179 749 b 279 897 179 844 213 897 b 382 757 340 897 382 860 b 213 364 382 585 213 514 b 217 322 213 351 214 338 l 308 322 b 549 761 332 514 549 535 z m 147 110 b 257 0 147 49 196 0 b 368 110 318 0 368 49 b 257 221 368 171 318 221 b 147 110 196 221 147 171 z "},"¿":{"ha":578,"x_min":0,"x_max":0,"o":"m 32 -132 b 286 -343 32 -208 58 -343 b 547 -150 489 -343 547 -237 b 425 -3 547 -54 489 -3 b 336 -61 386 -3 351 -22 b 401 -162 379 -76 401 -119 b 301 -268 401 -215 368 -268 b 199 -128 240 -268 199 -231 b 368 265 199 44 368 115 b 364 307 368 278 367 292 l 272 307 b 32 -132 249 115 32 94 z m 433 519 b 324 629 433 581 385 629 b 213 519 263 629 213 581 b 324 408 213 458 263 408 b 433 519 385 408 433 458 z "},"\"":{"ha":485,"x_min":0,"x_max":0,"o":"m 57 779 l 161 779 l 232 1042 l 86 1042 z m 275 779 l 379 779 l 450 1042 l 304 1042 z "},"„":{"ha":606,"x_min":0,"x_max":0,"o":"m 53 106 b 114 18 53 67 79 39 b 131 -6 125 11 131 3 l 63 -103 b 75 -122 63 -110 65 -117 b 243 111 181 -54 243 39 b 154 203 243 164 211 203 b 53 106 97 203 53 158 z m 358 106 b 419 18 358 67 385 39 b 436 -6 431 11 436 3 l 368 -103 b 381 -122 368 -110 371 -117 b 549 111 486 -54 549 39 b 460 203 549 164 517 203 b 358 106 403 203 358 158 z "},"“":{"ha":596,"x_min":0,"x_max":0,"o":"m 543 811 b 482 899 543 850 517 878 b 465 922 471 906 465 914 l 533 1019 b 521 1039 533 1026 531 1033 b 353 806 415 971 353 878 b 442 714 353 753 385 714 b 543 811 499 714 543 758 z m 238 811 b 176 899 238 850 211 878 b 160 922 165 906 160 914 l 228 1019 b 215 1039 228 1026 225 1033 b 47 806 110 971 47 878 b 136 714 47 753 79 714 b 238 811 193 714 238 758 z "},"”":{"ha":594,"x_min":0,"x_max":0,"o":"m 58 942 b 119 854 58 903 85 875 b 136 831 131 847 136 839 l 68 733 b 81 714 68 726 71 719 b 249 947 186 782 249 875 b 160 1039 249 1000 217 1039 b 58 942 103 1039 58 994 z m 364 942 b 425 854 364 903 390 875 b 442 831 436 847 442 839 l 374 733 b 386 714 374 726 376 719 b 554 947 492 782 554 875 b 465 1039 554 1000 522 1039 b 364 942 408 1039 364 994 z "},"‘":{"ha":290,"x_min":0,"x_max":0,"o":"m 238 811 b 176 899 238 850 211 878 b 160 922 165 906 160 914 l 228 1019 b 215 1039 228 1026 225 1033 b 47 806 110 971 47 878 b 136 714 47 753 79 714 b 238 811 193 714 238 758 z "},"’":{"ha":289,"x_min":0,"x_max":0,"o":"m 58 942 b 119 854 58 903 85 875 b 136 831 131 847 136 839 l 68 733 b 81 714 68 726 71 719 b 249 947 186 782 249 875 b 160 1039 249 1000 217 1039 b 58 942 103 1039 58 994 z "},"‚":{"ha":300,"x_min":0,"x_max":0,"o":"m 53 106 b 114 18 53 67 79 39 b 131 -6 125 11 131 3 l 63 -103 b 75 -122 63 -110 65 -117 b 243 111 181 -54 243 39 b 154 203 243 164 211 203 b 53 106 97 203 53 158 z "},"'":{"ha":267,"x_min":0,"x_max":0,"o":"m 57 779 l 161 779 l 232 1042 l 86 1042 z "},"r":{"ha":522,"x_min":0,"x_max":0,"o":"m 65 694 l 65 0 l 265 0 l 265 528 b 349 583 294 560 321 583 b 454 496 401 583 371 496 b 535 578 511 496 535 538 b 415 701 535 636 485 701 b 265 608 357 701 306 657 l 265 694 z "},"®":{"ha":769,"x_min":0,"x_max":0,"o":"m 385 110 b 721 465 568 110 721 267 b 385 819 721 664 568 819 b 49 464 201 819 49 663 b 385 110 49 267 201 110 z m 113 464 b 388 760 113 631 238 760 b 661 464 536 760 661 631 b 388 168 661 297 536 168 b 113 464 238 168 113 297 z m 251 267 l 315 267 l 315 438 l 397 438 l 483 264 l 549 274 l 458 447 b 540 554 507 461 540 503 b 388 671 540 629 485 671 l 253 671 z m 315 614 l 392 614 b 476 551 438 614 476 600 b 378 490 476 500 418 490 l 315 490 z "},"˚":{"ha":217,"x_min":0,"x_max":0,"o":"m -71 990 b -186 879 -147 990 -186 936 b -75 767 -186 822 -147 767 b 33 882 -1 767 33 822 b -71 990 33 933 7 990 z m -18 878 b -72 815 -18 839 -35 815 b -131 879 -115 815 -131 846 b -72 944 -131 924 -104 944 b -18 878 -31 944 -18 911 z "},"s":{"ha":531,"x_min":0,"x_max":0,"o":"m 596 249 b 511 179 574 226 543 201 l 511 188 b 390 738 511 324 483 378 l 190 710 b 85 299 175 574 138 436 b 33 197 56 283 33 247 b 278 -8 33 107 115 -8 b 472 71 344 -8 425 14 b 654 249 528 110 597 163 z m 194 236 b 156 294 194 265 176 285 b 232 551 185 382 214 464 b 308 199 289 343 308 297 b 210 101 308 126 263 101 b 104 199 149 101 118 133 b 146 181 114 185 132 181 b 194 236 176 181 194 208 z "},"ś":{"ha":531,"x_min":0,"x_max":0,"o":"m 596 249 b 511 179 574 226 543 201 l 511 188 b 390 738 511 324 483 378 l 190 710 b 85 299 175 574 138 436 b 33 197 56 283 33 247 b 278 -8 33 107 115 -8 b 472 71 344 -8 425 14 b 654 249 528 110 597 163 z m 194 236 b 156 294 194 265 176 285 b 232 551 185 382 214 464 b 308 199 289 343 308 297 b 210 101 308 126 263 101 b 104 199 149 101 118 133 b 146 181 114 185 132 181 b 194 236 176 181 194 208 z m 213 779 l 317 779 l 429 1042 l 283 1042 z "},"š":{"ha":531,"x_min":0,"x_max":0,"o":"m 596 249 b 511 179 574 226 543 201 l 511 188 b 390 738 511 324 483 378 l 190 710 b 85 299 175 574 138 436 b 33 197 56 283 33 247 b 278 -8 33 107 115 -8 b 472 71 344 -8 425 14 b 654 249 528 110 597 163 z m 194 236 b 156 294 194 265 176 285 b 232 551 185 382 214 464 b 308 199 289 343 308 297 b 210 101 308 126 263 101 b 104 199 149 101 118 133 b 146 181 114 185 132 181 b 194 236 176 181 194 208 z m 103 1042 l 242 779 l 271 779 l 510 1042 l 449 1042 l 254 931 l 147 1042 z "},"§":{"ha":722,"x_min":0,"x_max":0,"o":"m 607 888 b 393 1042 607 1031 446 1042 b 146 833 269 1042 146 982 b 164 740 146 799 153 768 b 63 581 103 711 63 656 b 413 97 63 363 413 365 b 317 -6 413 32 392 -6 b 183 125 219 -6 183 57 b 276 208 183 178 204 201 b 153 278 247 239 208 278 b 50 140 93 278 50 232 b 325 -75 50 -47 229 -75 b 576 143 486 -75 576 4 b 572 190 576 160 575 175 b 688 378 649 211 688 288 b 313 868 688 660 313 657 b 417 990 313 935 350 990 b 511 896 479 990 511 943 b 479 819 511 867 500 833 b 535 797 500 801 518 797 b 607 888 582 797 607 831 z m 558 315 b 550 264 558 296 556 278 b 196 636 464 451 196 519 b 210 671 196 653 201 664 b 558 315 326 544 558 496 z "},";":{"ha":378,"x_min":0,"x_max":0,"o":"m 75 521 b 185 411 75 460 124 411 b 296 521 246 411 296 460 b 185 632 296 582 246 632 b 75 521 124 632 75 582 z m 86 124 b 190 -28 86 31 190 21 b 153 -142 190 -68 153 -101 b 172 -175 153 -153 156 -165 b 299 78 254 -108 299 0 b 185 221 299 157 258 221 b 86 124 132 221 86 175 z "},"/":{"ha":731,"x_min":0,"x_max":0,"o":"m 711 1042 l 611 1042 l 21 -347 l 121 -347 z "}," ":{"ha":299,"x_min":0,"x_max":0,"o":""},"£":{"ha":678,"x_min":0,"x_max":0,"o":"m 556 588 b 475 556 540 567 510 556 b 344 583 428 556 389 571 l 344 1042 l 136 999 l 136 583 b 33 465 85 561 49 522 l 42 463 b 126 499 63 486 90 499 l 136 499 l 136 0 l 546 0 b 647 167 610 0 647 64 b 644 219 647 183 646 201 b 344 126 519 111 436 138 l 344 449 b 371 447 353 447 361 447 b 565 586 476 447 563 521 z "},"t":{"ha":371,"x_min":0,"x_max":0,"o":"m 65 886 l 65 694 l 21 694 l 21 639 l 65 639 l 65 207 b 258 -8 65 78 115 -8 b 494 249 333 -8 464 22 l 436 249 b 338 126 431 179 392 126 b 265 222 283 126 265 144 l 265 639 l 350 639 l 350 694 l 265 694 l 265 914 z "},"þ":{"ha":657,"x_min":0,"x_max":0,"o":"m 64 -347 l 263 -297 l 263 43 b 393 -8 282 17 322 -8 b 649 347 592 -8 649 189 b 414 701 649 618 538 701 b 260 638 340 701 292 674 b 19 972 242 847 135 915 l -43 972 b 64 674 42 885 64 810 z m 325 113 b 263 149 292 113 272 132 l 263 528 b 346 601 278 576 314 601 b 454 367 379 601 454 588 b 325 113 454 258 425 113 z "},"¾":{"ha":1083,"x_min":0,"x_max":0,"o":"m 761 1042 l 661 1042 l 300 -99 l 400 -99 z m 183 500 b 115 538 171 526 146 538 b 35 443 63 538 35 503 b 196 308 35 310 176 308 b 413 485 368 308 413 421 b 283 625 413 544 372 601 b 372 747 340 654 372 700 b 200 874 372 810 314 874 b 53 774 106 874 53 831 b 125 696 53 729 86 696 b 182 722 144 696 165 704 b 139 789 154 729 139 764 b 193 833 139 817 158 833 b 267 758 244 833 267 797 b 153 626 267 704 225 644 b 290 454 247 599 290 525 b 201 356 290 406 271 356 b 128 433 171 356 128 365 b 183 500 128 468 139 496 z m 886 208 l 886 1 l 1004 1 l 1004 208 l 1046 208 l 1051 263 l 1004 263 l 1004 564 l 886 549 l 886 263 l 757 263 b 831 463 779 325 831 383 b 722 564 831 536 775 564 b 742 476 729 549 742 533 b 686 208 742 382 694 278 z "},"³":{"ha":482,"x_min":0,"x_max":0,"o":"m 204 667 b 136 704 192 693 167 704 b 56 610 83 704 56 669 b 217 475 56 476 197 475 b 433 651 389 475 433 588 b 304 792 433 711 393 768 b 393 914 361 821 393 867 b 221 1040 393 976 335 1040 b 74 940 126 1040 74 997 b 146 863 74 896 107 863 b 203 889 165 863 186 871 b 160 956 175 896 160 931 b 214 1000 160 983 179 1000 b 288 925 265 1000 288 964 b 174 793 288 871 246 811 b 311 621 268 765 311 692 b 222 522 311 572 292 522 b 149 600 192 522 149 532 b 204 667 149 635 160 663 z "},"˜":{"ha":560,"x_min":0,"x_max":0,"o":"m 403 931 b 322 899 388 910 357 899 b 83 944 242 899 185 944 b -119 808 -22 944 -94 897 l -111 806 b -26 842 -90 829 -62 842 b 218 790 50 842 126 790 b 413 929 324 790 410 864 z "},"™":{"ha":688,"x_min":0,"x_max":0,"o":"m 618 601 l 597 908 l 532 908 l 488 667 l 440 907 l 385 907 l 354 601 l 388 601 l 407 815 l 443 601 l 511 601 l 549 811 l 571 601 z m 239 872 b 319 860 267 867 296 860 b 346 914 338 860 346 889 b 296 907 335 908 317 907 b 190 914 256 907 207 914 b 69 825 103 914 69 872 b 125 765 69 782 88 765 b 110 815 119 774 110 775 b 178 878 110 863 139 876 l 178 601 l 239 601 z "},"²":{"ha":478,"x_min":0,"x_max":0,"o":"m 147 578 b 394 901 193 679 394 732 b 226 1040 394 971 361 1040 b 67 933 119 1040 67 997 b 121 863 67 900 82 863 b 181 889 140 863 164 871 b 149 939 154 897 149 921 b 213 999 149 981 178 999 b 278 913 268 999 278 953 b 67 525 278 729 67 667 b 78 476 67 500 74 489 b 160 492 110 490 129 492 b 339 469 194 492 272 469 b 418 543 392 469 418 483 b 410 617 418 563 415 581 b 315 564 381 583 372 564 b 147 578 267 564 203 578 z "},"u":{"ha":701,"x_min":0,"x_max":0,"o":"m 410 694 l 410 249 b 322 126 410 179 372 126 b 265 222 286 126 265 153 l 265 694 l 65 694 l 65 207 b 251 -8 65 76 119 -8 b 436 124 308 -8 390 7 b 601 -8 454 42 503 -8 b 839 249 678 -8 808 22 l 781 249 b 674 126 774 182 744 126 b 610 222 625 126 610 153 l 610 694 z "},"ú":{"ha":701,"x_min":0,"x_max":0,"o":"m 410 694 l 410 249 b 322 126 410 179 372 126 b 265 222 286 126 265 153 l 265 694 l 65 694 l 65 207 b 251 -8 65 76 119 -8 b 436 124 308 -8 390 7 b 601 -8 454 42 503 -8 b 839 249 678 -8 808 22 l 781 249 b 674 126 774 182 744 126 b 610 222 625 126 610 153 l 610 694 z m 285 779 l 389 779 l 501 1042 l 356 1042 z "},"û":{"ha":701,"x_min":0,"x_max":0,"o":"m 410 694 l 410 249 b 322 126 410 179 372 126 b 265 222 286 126 265 153 l 265 694 l 65 694 l 65 207 b 251 -8 65 76 119 -8 b 436 124 308 -8 390 7 b 601 -8 454 42 503 -8 b 839 249 678 -8 808 22 l 781 249 b 674 126 774 182 744 126 b 610 222 625 126 610 153 l 610 694 z m 539 779 l 400 1042 l 371 1042 l 132 779 l 193 779 l 388 890 l 494 779 z "},"ü":{"ha":701,"x_min":0,"x_max":0,"o":"m 410 694 l 410 249 b 322 126 410 179 372 126 b 265 222 286 126 265 153 l 265 694 l 65 694 l 65 207 b 251 -8 65 76 119 -8 b 436 124 308 -8 390 7 b 601 -8 454 42 503 -8 b 839 249 678 -8 808 22 l 781 249 b 674 126 774 182 744 126 b 610 222 625 126 610 153 l 610 694 z m 382 881 b 467 796 382 833 419 796 b 551 881 513 796 551 833 b 467 965 551 926 513 965 b 382 881 419 965 382 926 z m 132 881 b 217 796 132 833 169 796 b 301 881 263 796 301 833 b 217 965 301 926 263 965 b 132 881 169 965 132 926 z "},"ù":{"ha":701,"x_min":0,"x_max":0,"o":"m 410 694 l 410 249 b 322 126 410 179 372 126 b 265 222 286 126 265 153 l 265 694 l 65 694 l 65 207 b 251 -8 65 76 119 -8 b 436 124 308 -8 390 7 b 601 -8 454 42 503 -8 b 839 249 678 -8 808 22 l 781 249 b 674 126 774 182 744 126 b 610 222 625 126 610 153 l 610 694 z m 289 779 l 393 779 l 297 1042 l 151 1042 z "},"ű":{"ha":701,"x_min":0,"x_max":0,"o":"m 410 694 l 410 249 b 322 126 410 179 372 126 b 265 222 286 126 265 153 l 265 694 l 65 694 l 65 207 b 251 -8 65 76 119 -8 b 436 124 308 -8 390 7 b 601 -8 454 42 503 -8 b 839 249 678 -8 808 22 l 781 249 b 674 126 774 182 744 126 b 610 222 625 126 610 153 l 610 694 z m 364 779 l 454 779 l 567 1042 l 435 1042 z m 183 779 l 274 779 l 386 1042 l 254 1042 z "},"_":{"ha":613,"x_min":0,"x_max":0,"o":"m 550 110 l 63 110 l 63 0 l 550 0 z "},"­":{"ha":443,"x_min":0,"x_max":0,"o":"m 361 418 l 82 418 l 82 308 l 361 308 z "},"v":{"ha":575,"x_min":0,"x_max":0,"o":"m 429 722 b 360 664 383 722 360 697 b 426 576 360 628 388 576 b 468 590 438 576 465 581 b 479 471 475 556 479 515 b 325 126 479 314 432 126 b 265 222 282 126 265 156 l 265 694 l 65 694 l 65 222 b 276 -8 65 82 144 -8 b 563 461 494 -8 563 249 b 429 722 563 624 522 722 z "},"w":{"ha":918,"x_min":0,"x_max":0,"o":"m 772 722 b 703 664 726 722 703 697 b 769 576 703 628 731 576 b 811 590 781 576 808 581 b 822 471 818 556 822 515 b 668 126 822 314 775 126 b 608 222 625 126 608 156 l 608 694 l 408 694 l 408 249 b 322 126 403 179 372 126 b 265 222 286 126 265 153 l 265 694 l 65 694 l 65 207 b 251 -8 65 76 119 -8 b 429 108 306 -8 382 6 b 619 -8 461 35 528 -8 b 906 461 838 -8 906 249 b 772 722 906 624 865 722 z "},"x":{"ha":725,"x_min":0,"x_max":0,"o":"m 547 338 b 688 657 628 450 688 571 b 582 783 688 746 633 783 b 496 707 538 783 496 754 b 582 628 496 668 524 628 b 603 631 593 628 590 629 b 604 611 604 624 604 618 b 517 428 604 563 572 504 l 481 536 b 294 701 454 614 404 701 b 64 249 111 701 64 456 l 122 249 b 238 588 122 478 183 588 b 314 472 263 588 281 565 l 369 317 l 157 0 l 257 0 l 400 233 b 626 -8 464 64 535 -8 b 847 249 690 -8 818 28 l 789 249 b 688 126 782 174 743 126 b 579 247 643 126 610 157 z "},"y":{"ha":675,"x_min":0,"x_max":0,"o":"m 408 694 l 408 249 b 322 126 403 179 372 126 b 265 222 286 126 265 153 l 265 694 l 65 694 l 65 207 b 251 -8 65 76 119 -8 b 408 71 299 -8 361 1 l 408 -6 b 222 -190 317 -36 222 -89 b 415 -347 222 -287 308 -347 b 608 -111 501 -347 608 -308 l 608 -12 b 800 249 690 14 783 65 l 742 249 b 608 50 728 126 686 81 l 608 694 z m 296 -178 b 408 -75 296 -133 346 -101 l 408 -115 b 353 -239 408 -197 386 -239 b 296 -178 328 -239 296 -214 z "},"ý":{"ha":675,"x_min":0,"x_max":0,"o":"m 408 694 l 408 249 b 322 126 403 179 372 126 b 265 222 286 126 265 153 l 265 694 l 65 694 l 65 207 b 251 -8 65 76 119 -8 b 408 71 299 -8 361 1 l 408 -6 b 222 -190 317 -36 222 -89 b 415 -347 222 -287 308 -347 b 608 -111 501 -347 608 -308 l 608 -12 b 800 249 690 14 783 65 l 742 249 b 608 50 728 126 686 81 l 608 694 z m 283 779 l 388 779 l 500 1042 l 354 1042 z m 296 -178 b 408 -75 296 -133 346 -101 l 408 -115 b 353 -239 408 -197 386 -239 b 296 -178 328 -239 296 -214 z "},"ÿ":{"ha":675,"x_min":0,"x_max":0,"o":"m 408 694 l 408 249 b 322 126 403 179 372 126 b 265 222 286 126 265 153 l 265 694 l 65 694 l 65 207 b 251 -8 65 76 119 -8 b 408 71 299 -8 361 1 l 408 -6 b 222 -190 317 -36 222 -89 b 415 -347 222 -287 308 -347 b 608 -111 501 -347 608 -308 l 608 -12 b 800 249 690 14 783 65 l 742 249 b 608 50 728 126 686 81 l 608 694 z m 131 881 b 215 796 131 833 168 796 b 300 881 261 796 300 833 b 215 965 300 926 261 965 b 131 881 168 965 131 926 z m 381 881 b 465 796 381 833 418 796 b 550 881 511 796 550 833 b 465 965 550 926 511 965 b 381 881 418 965 381 926 z m 296 -178 b 408 -75 296 -133 346 -101 l 408 -115 b 353 -239 408 -197 386 -239 b 296 -178 328 -239 296 -214 z "},"¥":{"ha":988,"x_min":0,"x_max":0,"o":"m 746 267 l 746 357 l 925 357 l 925 426 l 746 426 l 925 1035 l 833 1035 l 700 540 l 501 1039 b 443 1042 483 1040 464 1042 b 31 714 232 1042 31 890 b 211 546 31 593 100 546 b 163 708 200 568 163 592 b 314 949 163 822 217 910 l 524 426 l 388 426 l 388 357 l 524 357 l 524 267 l 388 267 l 388 197 l 524 197 l 524 0 l 746 0 l 746 197 l 925 197 l 925 267 z "},"z":{"ha":594,"x_min":0,"x_max":0,"o":"m 507 126 b 447 99 507 104 481 99 b 325 107 410 99 349 106 l 590 694 l 208 694 b 75 569 121 694 75 624 b 154 493 75 518 117 493 b 215 551 185 493 215 511 b 192 600 215 607 192 586 b 263 619 192 617 222 619 l 365 619 l 93 0 l 476 0 b 617 129 571 0 617 71 b 539 215 617 175 590 215 b 474 163 493 215 474 186 b 507 126 474 144 485 128 z "},"ź":{"ha":594,"x_min":0,"x_max":0,"o":"m 507 126 b 447 99 507 104 481 99 b 325 107 410 99 349 106 l 590 694 l 208 694 b 75 569 121 694 75 624 b 154 493 75 518 117 493 b 215 551 185 493 215 511 b 192 600 215 607 192 586 b 263 619 192 617 222 619 l 365 619 l 93 0 l 476 0 b 617 129 571 0 617 71 b 539 215 617 175 590 215 b 474 163 493 215 474 186 b 507 126 474 144 485 128 z m 285 779 l 389 779 l 501 1042 l 356 1042 z "},"ž":{"ha":594,"x_min":0,"x_max":0,"o":"m 507 126 b 447 99 507 104 481 99 b 325 107 410 99 349 106 l 590 694 l 208 694 b 75 569 121 694 75 624 b 154 493 75 518 117 493 b 215 551 185 493 215 511 b 192 600 215 607 192 586 b 263 619 192 617 222 619 l 365 619 l 93 0 l 476 0 b 617 129 571 0 617 71 b 539 215 617 175 590 215 b 474 163 493 215 474 186 b 507 126 474 144 485 128 z m 199 1042 l 338 779 l 367 779 l 606 1042 l 544 1042 l 350 931 l 243 1042 z "},"ż":{"ha":594,"x_min":0,"x_max":0,"o":"m 247 881 b 335 793 247 832 286 793 b 424 881 383 793 424 832 b 335 969 424 929 383 969 b 247 881 286 969 247 929 z m 507 126 b 447 99 507 104 481 99 b 325 107 410 99 349 106 l 590 694 l 208 694 b 75 569 121 694 75 624 b 154 493 75 518 117 493 b 215 551 185 493 215 511 b 192 600 215 607 192 586 b 263 619 192 617 222 619 l 365 619 l 93 0 l 476 0 b 617 129 571 0 617 71 b 539 215 617 175 590 215 b 474 163 493 215 474 186 b 507 126 474 144 485 128 z "}}}
